<svg width="513" height="513" viewBox="0 0 513 513" fill="none" xmlns="http://www.w3.org/2000/svg">
<path fill-rule="evenodd" clip-rule="evenodd" d="M480.793 257.387C480.793 133.687 380.493 33.3867 256.793 33.3867C133.093 33.3867 32.7935 133.687 32.7935 257.387C32.7935 369.187 114.693 461.857 221.793 478.677V322.157H164.903V257.387H221.793V208.037C221.793 151.907 255.243 120.877 306.403 120.877C330.913 120.877 356.553 125.257 356.553 125.257V180.387H328.293C300.483 180.387 291.783 197.647 291.783 215.387V257.387H353.903L343.983 322.157H291.793V478.697C398.893 461.887 480.793 369.217 480.793 257.387V257.387Z" fill="white"/>
</svg>
