<svg width="223" height="326" viewBox="0 0 223 326" fill="none" xmlns="http://www.w3.org/2000/svg">
<g clip-path="url(#clip0_43_290)">
<path d="M116.069 123.275C116.867 125.178 119.356 125.389 119.855 127.707C117.558 127.874 115.448 126.066 112.702 126.855C114.071 127.54 114.648 128.675 115.975 128.774C117.972 129.021 118.385 130.168 117.529 131.996C115.624 135.273 113.569 138.758 111.514 142.243C110.445 141.144 111.522 140.084 111.273 138.925C109.132 141.239 108.854 144.202 107.562 146.846C107.185 143.931 107.97 141.128 108.933 138.507C109.897 135.887 110.518 133.095 110.932 129.73C109.256 131.618 108.92 133.8 107.244 135.688C106.909 133.358 107.451 131.749 108.308 129.922C108.443 129.519 108.743 129.105 108.893 128.898C109 128.106 110.227 126.839 108.708 126.361C107.531 126.055 107.809 127.604 107.538 128.408C103.713 139.28 101.57 150.618 98.936 161.991C98.9502 162.187 98.8004 162.394 98.5007 162.808C97.838 160.502 98.3519 158.503 98.5236 156.333C98.6023 155.15 99.1874 154.126 97.968 153.234C97.4475 152.88 97.7187 152.076 97.8401 151.478C98.3256 149.089 98.6471 146.711 99.3109 144.505C101.195 138.679 102.081 132.729 104.307 127.074C104.578 126.27 105.178 125.442 103.973 124.745C102.782 124.243 101.84 124.9 101.419 125.912C100.755 128.118 100.092 130.324 99.4277 132.53C97.0219 142.514 94.9442 152.474 92.5242 162.263C91.6319 165.859 90.768 169.845 88.9199 173.903C88.2998 172.183 88.5283 170.793 88.9351 169.586C89.9204 165.002 87.147 160.889 88.1323 156.305C87.9682 156.317 87.6402 156.341 87.4619 156.158C86.9764 158.547 86.6691 161.12 86.1836 163.509C83.0637 177.272 83.7452 191.151 83.2784 205.113C83.1702 210.417 82.5698 215.757 81.1351 220.962C80.9995 221.365 81.0422 221.95 81.0706 222.34C81.9532 229.926 82.0014 237.377 82.2279 245.012C82.3274 246.377 83.6397 246.282 83.9033 247.636C84.9139 256.978 85.9102 266.126 87.0991 275.651C85.7299 274.966 86.1367 273.76 85.4095 272.832C85.088 275.209 86.2144 277.089 85.8645 279.076C82.0728 267.778 80.8916 256.094 79.3823 244.434C80.6947 244.339 80.2594 245.155 80.7658 245.314C81.1726 244.108 81.2371 242.73 80.9877 241.571C80.1259 236.533 80.2341 231.229 78.5521 226.251C77.6827 223.372 78.2611 219.995 78.3617 216.849C78.3475 216.654 78.3333 216.458 78.3048 216.068C77.8127 216.104 78.0194 216.677 77.8554 216.689C77.0494 216.944 77.1566 216.152 77.1424 215.957C76.9859 213.81 76.8153 211.469 76.987 209.298C77.4025 201.421 77.982 193.532 78.2334 185.667C78.3701 180.753 77.3442 175.727 78.3011 170.753C80.2792 159.428 81.1091 148.185 84.0858 136.983C84.2072 136.386 84.5068 135.972 84.1218 135.215C83.1518 135.482 83.4296 137.031 82.1315 137.322C81.9401 132.431 84.2377 127.752 84.5384 122.826C83.2687 123.507 83.19 124.69 82.9188 125.494C80.4277 134.307 79.6054 143.391 78.127 152.522C77.3342 157.484 76.0635 162.677 76.4332 167.751C76.4758 168.336 76.5327 169.117 75.6983 168.981C75.0279 168.834 74.8212 168.261 74.7786 167.675C75.3647 162.14 74.4602 156.517 76.2088 151.093C76.8726 148.887 76.866 146.533 76.8736 144.375C75.7035 146.422 75.546 148.787 74.9107 151.384C73.1423 149.747 73.6847 148.138 73.7208 146.37C72.7366 146.442 73.1357 147.393 72.1942 148.05C72.5375 143.71 72.731 139.576 73.0886 135.43C73.2745 133.455 73.2821 131.297 73.468 129.321C73.5752 128.529 73.6823 127.737 74.5025 127.677C75.3227 127.617 75.7077 128.374 76.0926 129.13C76.6558 130.07 76.2348 131.082 76.1419 132.069C76.0347 132.862 75.7493 133.471 75.4781 134.275C75.3709 135.068 75.7274 135.434 76.3978 135.582C77.2322 135.717 77.5176 135.108 77.4892 134.717C77.7254 131.169 79.1383 127.927 79.7167 124.55C80.3236 121.564 79.7889 121.014 76.9291 120.242C71.4021 119.075 65.711 117.92 60.1982 116.949C58.6934 116.666 57.3669 116.567 56.8387 118.371C56.5675 119.175 55.9114 119.223 55.241 119.076C48.5088 117.212 41.3053 117.933 34.4518 116.667C27.5698 115.011 21.3297 113.111 15.6605 109.993C14.4553 109.297 13.564 108.381 12.4945 107.282C11.0542 105.621 9.91357 103.546 7.69576 102.531C6.84712 102.2 6.46217 101.444 6.39108 100.468C6.19964 95.5779 6.02243 90.8827 6.50137 86.1398C6.68726 84.1645 7.49323 83.9096 9.3261 84.1684C11.1732 84.6223 12.2712 86.1117 14.1182 86.5656C14.7886 86.7129 14.8455 87.4934 14.7383 88.2859C14.6312 89.0784 14.1533 89.3094 13.3331 89.3692C12.841 89.405 12.3488 89.4409 11.6927 89.4887C12.6551 91.3803 14.3523 92.0413 15.622 91.3602C18.7748 89.365 21.827 90.5157 24.9864 90.874C26.3129 90.9735 27.5181 91.6704 29.1727 91.746C28.5953 90.6111 27.5826 90.2925 26.7624 90.3523C24.1093 90.1533 23.7462 87.4334 22.3202 85.9679C21.6072 85.2352 22.1638 83.8215 23.4619 83.5307C25.5659 82.985 26.6147 81.5354 27.4852 79.9026C27.9346 79.2814 28.1916 78.2818 29.19 78.4052C34.1965 79.2174 39.2959 79.042 44.1023 81.6343C40.1009 83.2991 36.5281 81.7939 33.0406 81.4595C35.8359 83.6099 39.1451 83.7611 42.4827 84.3026C45.8204 84.844 49.2794 84.7881 52.0889 87.1336C48.6583 87.5798 45.2922 86.648 41.9546 86.1066C38.6169 85.5651 35.265 84.8285 31.7918 84.6892C32.8044 85.0078 33.6389 85.1432 34.6515 85.4617C38.6738 86.3456 42.696 87.2295 46.7325 88.3086C47.4029 88.4559 48.2373 88.5913 48.1301 89.3838C47.9727 91.7493 49.613 91.6298 51.0894 91.5222C60.9744 91.3904 70.6735 93.2338 80.237 95.4795C82.2481 95.9215 83.9738 96.9727 86.2988 97.1956C84.3379 95.1807 80.5793 95.6507 79.9307 93.5401C79.2538 91.0393 74.582 92.5567 76.6083 88.6818C79.3609 90.2468 82.8626 90.7763 86.0931 92.1102C86.7777 92.4527 87.6263 92.7832 88.4607 92.9186C89.9655 93.2012 90.7004 91.9707 91.1214 90.9592C91.7065 89.9357 90.3657 89.641 89.6812 89.2986C87.6274 88.2712 85.5878 87.439 83.2486 87.0209C82.5782 86.8736 81.7438 86.7383 82.015 85.9338C82.1222 85.1413 83.1207 85.2647 83.627 85.424C85.31 85.8899 86.829 86.3677 88.6619 86.6265C87.3857 84.954 85.0607 84.731 83.4848 83.4727C84.7544 82.7917 85.7956 83.5005 86.9438 83.4168C86.5873 83.0504 86.2308 82.6841 85.8458 81.9275C88.0068 82.1623 89.5684 83.2256 91.6441 82.2896C89.7828 81.6406 87.7574 81.0035 85.8961 80.3544C85.7321 80.3664 85.0902 80.6093 85.1044 80.8045C84.1694 83.8151 82.401 82.1785 81.1817 81.2865C79.7983 80.4064 78.5789 79.5144 76.9101 79.2437C76.582 79.2676 76.0614 78.9132 75.8832 78.73C75.1701 77.9973 73.965 77.3005 74.3718 76.0938C74.7928 75.0823 75.998 75.7791 76.8324 75.9145C80.5123 76.6272 84.1781 77.1448 87.9936 77.4552C91.153 77.8135 92.4084 76.9374 92.6731 73.7794C93.409 68.0369 94.3232 62.4775 95.9077 57.0655C97.1926 52.0676 98.3135 47.0817 99.2703 42.1078C100.199 36.7435 102.126 31.5027 103.56 26.2978C103.817 25.2982 103.76 24.5177 103.361 23.5659C102.534 21.2721 103.348 18.8588 104.861 16.9831C106.808 14.291 109.469 12.3316 112.515 11.1288C115.396 9.93798 118.114 8.75911 120.995 7.56829C121.801 7.31339 122.593 6.86336 123.156 7.80317C123.719 8.74297 123.298 9.7545 122.357 10.4116C121.101 11.2878 120.01 12.152 118.947 13.4064C121.586 13.4103 124.21 13.2191 126.928 12.0402C126.572 11.6739 126.557 11.4787 126.393 11.4907C125.545 11.1602 123.975 12.2554 123.997 10.2921C124.062 8.9142 124.633 7.69559 126.423 7.36897C128.377 7.0304 130.495 6.67988 132.435 6.14618C134.375 5.61247 135.103 6.54032 135.052 8.11334C135.002 9.68636 135.715 10.4191 137.056 10.7137C137.89 10.8491 138.753 11.3747 139.602 11.7052C141.121 12.183 141.998 12.9038 141.798 14.6839C141.733 16.0618 142.624 16.9777 143.965 17.2723C144.415 16.6511 144.072 16.4799 143.88 16.1015C143.331 15.3569 142.454 14.6361 143.217 13.7958C143.831 13.1626 144.722 14.0785 145.407 14.4209C147.817 15.8147 149.15 18.2677 149.663 20.7805C151.8 32.0026 150.942 42.8545 146.774 53.5551C142.906 63.8416 137.327 73.2719 132.432 83.0447C132.446 83.2399 132.282 83.2518 132.132 83.4589C131.847 84.0682 131.59 85.0678 130.563 84.5541C129.714 84.2236 130.314 83.3953 130.435 82.7979C131.491 79.1899 132.726 75.7651 133.782 72.157C135.11 67.7446 137.122 63.6746 137.779 59.1148C137.886 58.3223 138.172 57.713 139.006 57.8484C140.675 58.1191 141.082 56.9124 141.325 55.7177C142.745 50.3177 144.686 45.272 145.943 39.8839C147.321 33.8984 147.072 28.2276 143.557 22.991C143.008 22.2463 142.609 21.2945 141.625 21.3663C140.898 20.4384 140.819 21.6211 140.37 22.2424C138.736 24.7155 139.249 27.2283 139.626 30.1434C140.675 28.6938 140.561 27.1327 140.968 25.926C141.089 25.3287 141.032 24.5481 141.852 24.4884C142.837 24.4167 143.236 25.3684 143.293 26.149C143.35 26.9295 143.228 27.5268 143.121 28.3193C143.042 29.5021 142.008 31.1468 144.632 30.9556C145.617 30.8838 146.03 32.0307 146.101 33.0064C146.286 35.5431 145.458 37.7613 144.809 40.1627C144.673 40.5649 144.388 41.1742 143.895 41.2101C143.239 41.2579 143.197 40.6725 142.84 40.3061C141.906 38.8048 142.449 37.1959 142.157 35.4517C141.015 37.8889 140.216 40.4974 139.744 43.0819C139.609 43.4841 139.651 44.0695 140.279 43.6314C142.191 42.7075 141.484 44.3283 141.705 45.0969C141.733 45.4872 141.748 45.6823 141.612 46.0845C138.472 52.7869 135.839 59.6485 133.726 66.8645C132.464 65.3871 131.545 64.081 131.702 61.7155C128.677 65.4669 127.828 69.6484 125.623 73.3401C124.568 72.4361 125.467 71.1936 124.59 70.4729C123.441 70.5565 123.348 71.5441 122.913 72.3605C121.8 75.188 120.701 78.2106 119.588 81.0381C119.302 81.6474 119.551 82.8063 118.553 82.6829C117.555 82.5595 118.14 81.536 118.083 80.7554C118.069 80.5603 118.054 80.3652 118.012 79.7798C116.606 80.863 115.886 82.2887 115.821 83.6666C115.757 85.0445 117.262 85.3272 118.274 85.6457C126.967 89.5242 135.81 93.1955 144.503 97.074C149.445 99.2641 153.773 102.087 157.667 105.727C158.9 106.814 160.255 107.304 161.624 107.989C166.623 110.96 171.622 113.93 176.007 117.534C177.762 118.975 179.83 120.198 181.598 121.835C172.862 117.371 164.441 112.688 155.227 108.455C155.462 109.419 156.132 109.566 156.489 109.932C157.01 110.287 157.53 110.641 158.051 110.996C158.928 111.716 158.792 112.119 157.822 112.386C156.36 112.688 155.226 112.967 153.693 112.294C148.052 109.566 143.296 105.401 137.655 102.673C131.494 99.5913 125.09 97.7039 118.137 95.0719C119.591 96.9276 121.41 96.9912 122.807 98.0664C123.164 98.4328 123.834 98.5801 123.385 99.2013C123.085 99.6155 122.757 99.6394 122.4 99.2731C119.541 98.5006 116.61 96.7525 112.973 96.6252C116.053 98.1662 119.162 100.098 122.921 99.6275C123.349 100.97 124.989 100.85 125.716 101.778C124.953 102.618 123.734 101.726 122.806 102.578C125.081 104.374 127.941 105.147 130.351 106.54C131.72 107.225 134.238 107.827 133.531 109.447C132.975 110.861 130.878 109.248 129.523 108.759C126.827 107.974 124.267 106.788 121.721 105.796C120.958 106.636 122.449 106.724 122.028 107.736C120.509 107.258 118.811 106.597 116.622 105.972C118.062 107.632 119.581 108.11 121.115 108.783C129.287 112.307 137.445 115.636 145.468 119.367C149.397 121.239 152.891 123.926 156.835 125.993C164.722 130.126 172.01 135.088 179.447 139.843C181.187 141.089 181.493 143.029 183.219 144.08C187.726 147.086 192.396 150.081 196.304 153.916C201.787 159.009 207.42 163.895 212.005 170.231C210.692 170.326 209.965 169.398 209.266 168.861C205.772 166.173 202.578 163.071 198.784 160.797C198.442 160.626 197.757 160.283 197.879 159.686C198.415 155.724 194.556 154.828 193.045 152.191C192.881 152.203 192.731 152.41 192.403 152.434C192.995 153.764 193.572 154.899 194.328 156.218C194.178 156.425 194.028 156.632 194.028 156.632C187.283 150.061 179.803 144.721 171.352 139.648C171.851 141.966 173.085 143.053 174.618 143.726C176.151 144.399 177.37 145.291 178.44 146.39C179.866 147.855 181.428 148.918 183.153 149.97C186.248 151.706 188.116 154.708 191.132 157.627C189.464 157.357 188.765 156.819 187.902 156.293C182.682 152.554 176.999 149.241 172.392 144.869C168.128 140.668 162.858 138.501 158.038 135.714C155.627 134.32 152.881 135.109 150.35 134.312C145.451 132.708 140.701 130.896 136.373 128.073C134.989 127.193 133.484 126.91 131.595 125.871C133.535 125.337 135.289 126.778 136.965 124.891C127.616 121.06 118.852 116.206 109.681 112.559C112.106 114.147 114.951 114.725 117.39 116.509C117.91 116.863 118.745 116.999 118.802 117.779C119.151 120.304 121.326 120.734 122.887 121.797C126.161 123.716 129.27 125.648 132.543 127.567C132.393 127.774 132.407 127.969 132.257 128.176C129.205 127.026 126.167 126.07 123.429 124.7C121.553 123.856 119.828 122.805 117.738 123.545C117.096 123.788 116.589 123.629 116.069 123.275C113.566 122.869 111.904 120.439 109.13 120.838C111.212 122.255 113.458 123.661 116.069 123.275ZM39.153 111.028C42.2764 113.154 46.7273 110.868 49.6363 114.58C50.3635 115.508 53.3873 116.268 54.8571 113.807C55.3065 113.186 56.1409 113.321 56.9611 113.261C59.764 113.253 62.5669 113.245 65.2626 114.03C70.49 115.61 75.8388 116.594 81.1875 117.577C84.8675 118.29 85.5094 118.047 86.0452 114.085C86.2738 112.695 85.8746 111.743 84.3698 111.46C81.7168 111.261 79.1709 110.27 76.625 109.278C75.9546 109.131 75.0918 108.605 74.6423 109.227C73.6078 110.871 72.0888 110.394 70.7622 110.294C66.9467 109.984 62.9671 109.685 59.1516 109.375C57.1547 109.128 54.7083 109.502 54.0171 106.806C54.0029 106.611 53.4823 106.257 53.3183 106.269C50.3514 106.289 47.4916 105.516 45.0529 103.732C44.8889 103.744 44.7248 103.756 44.5466 103.573C41.7295 103.386 38.9124 103.199 36.081 102.817C36.1521 103.792 37.4502 103.501 37.5071 104.282C37.2075 104.696 36.3446 104.171 36.2517 105.158C39.1399 106.321 42.3135 106.874 44.7664 108.853C42.9336 108.595 41.0865 108.141 38.5832 107.735C40.7366 110.128 40.7366 110.128 39.153 111.028ZM139.062 126.504C143.718 129.303 148.66 131.493 153.331 134.488C153.26 133.512 152.276 133.584 152.383 132.791C152.547 132.779 152.875 132.755 153.039 132.743C154.201 132.855 155.763 133.918 156.334 132.699C156.905 131.481 155.058 131.027 154.017 130.318C151.742 128.522 149.481 126.921 146.864 124.954C148.476 124.444 149.396 125.75 150.844 125.253C142.23 120.191 133.373 116.325 124.002 114.458C125.442 116.118 127.467 116.755 129.493 117.392C131.682 118.017 134.185 118.424 135.64 120.279C137.272 122.318 139.505 123.529 141.573 124.751C142.435 125.277 143.434 125.4 143.847 126.547C142.385 126.85 140.702 126.384 139.062 126.504ZM151.626 106.56C151.498 104.803 151.263 103.84 150.072 103.338C144.417 100.415 138.747 97.2972 132.793 94.7886C131.602 94.2869 130.411 93.7851 128.992 94.6732C136.522 98.4402 144.024 101.817 151.626 106.56ZM70.6572 102.063C75.9272 104.229 81.4116 104.81 87.0458 105.184C87.5379 105.148 88.3723 105.284 88.3154 104.503C88.2728 103.918 87.738 103.368 86.9036 103.233C86.0834 103.293 84.9636 103.767 84.5502 102.62C83.9727 101.485 82.9885 101.556 81.9758 101.238C78.075 99.7566 74.5011 102.763 70.6572 102.063ZM119.779 56.5031C118.645 56.7819 118.701 57.5624 118.402 57.9766C116.497 61.2541 115.262 64.6789 113.878 68.3109C112.208 72.5521 110.374 76.8053 108.526 80.8633C108.24 81.4726 107.983 82.4722 108.832 82.8027C109.859 83.3164 109.952 82.3288 110.237 81.7195C112.871 74.8578 115.668 67.9842 118.301 61.1226C118.844 59.5137 119.236 58.1119 119.779 56.5031ZM14.8226 93.9687C21.1698 95.0755 26.8467 96.0351 32.3879 97.3968C32.7302 97.568 33.2223 97.5322 33.5504 97.5083C34.0425 97.4724 34.5204 97.2414 34.6418 96.6441C34.7632 96.0467 34.2711 96.0826 33.9146 95.7162C30.8197 93.98 27.6034 92.8412 24.0088 93.2993C21.2343 93.6976 18.4315 93.7057 14.8226 93.9687ZM108.701 65.1571C106.617 68.2514 105.739 72.0426 103.642 74.9418C103.043 75.7702 103.934 76.686 104.782 77.0166C105.631 77.347 106.259 76.909 106.53 76.1045C107.601 72.6916 108.999 69.2549 108.701 65.1571ZM123.756 65.8255C123.934 66.0087 124.113 66.1919 124.291 66.3751C124.441 66.168 124.576 65.7658 124.562 65.5706C127.286 66.7453 127.101 64.2086 128 62.9661C128.899 61.7235 129.62 60.2978 130.341 58.8722C130.626 58.2628 131.24 57.6296 130.705 57.0801C129.571 57.3589 129.577 59.7124 128.522 58.8085C127.303 57.9165 127.374 58.8922 127.074 59.3063C125.918 61.5484 124.762 63.7905 123.756 65.8255ZM26.4104 101.363C22.3455 99.8941 18.2806 98.4248 13.9871 98.3453C17.6452 101.021 21.9671 101.491 26.4104 101.363ZM98.0173 63.3853C100.279 60.4742 101.171 56.8781 102.748 53.6245C103.034 53.0152 102.827 52.4417 102.156 52.2944C101.486 52.1471 101.008 52.3781 100.887 52.9754C99.9802 56.3764 99.0879 59.9724 98.0173 63.3853ZM106.016 107.529C107.114 109.018 109.04 108.29 109.482 109.827C109.91 111.169 111.072 111.28 112.249 111.587C112.755 111.746 113.44 112.089 113.697 111.089C113.818 110.492 113.925 109.699 112.913 109.381C110.709 108.56 108.655 107.533 106.016 107.529ZM80.5716 97.8091C82.8321 99.41 85.214 100.413 87.7314 101.015C88.2377 101.174 88.8939 101.126 89.1651 100.322C89.2865 99.7243 88.7802 99.565 88.2738 99.4058C85.6065 99.0116 83.0891 98.4104 80.5716 97.8091ZM99.3144 67.6065C98.4581 69.4345 97.4236 71.0792 96.5673 72.9071C96.1321 73.7235 95.5186 74.3567 95.4256 75.3443C95.4541 75.7346 95.3185 76.1368 95.8248 76.2961C96.3312 76.4554 96.6308 76.0412 96.7806 75.8341C97.5658 73.0305 99.2138 70.7526 99.3144 67.6065ZM25.3464 107.13C23.4282 105.7 21.895 105.027 20.376 104.549C19.8696 104.39 19.2135 104.438 18.9281 105.047C18.6427 105.657 18.8351 106.035 19.3415 106.194C21.0245 106.66 22.736 107.516 25.3464 107.13ZM69.1676 97.4631C66.1723 97.0929 63.2841 95.9301 60.21 96.7427C63.2054 97.1129 65.9864 99.0681 69.1676 97.4631ZM54.6743 102.246C52.4565 101.231 50.1173 100.813 47.6709 101.187C49.903 102.398 52.2137 102.426 54.6743 102.246ZM104.484 102.344C102.923 101.281 101.418 100.998 100.063 100.508C99.5564 100.349 98.9287 100.787 98.8073 101.385C98.6859 101.982 99.1923 102.141 99.6986 102.3C101.025 102.4 102.394 103.085 104.484 102.344ZM22.8595 97.8949C24.1073 99.1772 25.2982 99.6789 26.7745 99.5713C27.2667 99.5355 27.224 98.9501 27.1956 98.5598C26.4114 96.8514 24.9777 97.5444 23.6512 97.4449C23.5014 97.652 23.3374 97.6639 22.8595 97.8949ZM31.6267 89.2132C30.4358 88.7114 29.4089 88.1978 28.2037 87.5009C27.6832 87.1465 27.027 87.1943 26.7416 87.8036C26.3064 88.62 27.155 88.9505 27.6613 89.1098C29.0163 89.5995 30.1788 89.711 31.6267 89.2132ZM102.608 106.012C101.21 104.937 100.033 104.63 98.6925 104.335C98.3502 104.164 97.8723 104.395 97.7367 104.797C97.6154 105.395 97.9719 105.761 98.3142 105.932C99.6549 106.227 100.832 106.534 102.608 106.012ZM113.243 100.333C112.665 99.1978 111.489 98.8912 110.462 98.3775C109.955 98.2182 109.449 98.0589 109.164 98.6683C108.892 99.4727 109.399 99.632 109.905 99.7912C111.082 100.098 112.109 100.612 113.243 100.333ZM30.0838 99.7226C31.6028 100.2 32.8221 101.092 34.2416 100.204C34.5555 99.9852 34.527 99.595 34.1847 99.4237C32.9796 98.7269 31.653 98.6274 30.0838 99.7226ZM45.8752 94.6485C47.7365 95.2975 49.7334 95.5444 52.1655 94.9748C49.6481 94.3736 47.8294 94.3099 45.8752 94.6485ZM42.5812 90.1805C41.0338 89.3124 39.3792 89.2368 37.753 89.5514C39.1506 90.6266 40.8052 90.7022 42.5812 90.1805ZM119.109 115.206C120.399 117.074 122.382 117.126 124.229 117.58C122.667 116.516 121.092 115.258 119.109 115.206Z" fill="white"/>
<path d="M73.9524 224.232C73.4166 228.194 74.6994 232.221 73.9996 236.195C73.8213 236.012 73.6573 236.024 73.6573 236.024C71.9042 230.07 70.0013 224.324 70.8586 217.984C71.0587 216.204 70.7667 214.46 70.8027 212.691C70.7459 211.911 70.8672 211.314 70.9744 210.521C71.0958 209.924 71.2172 209.326 71.8733 209.279C72.5295 209.231 72.5864 210.011 72.629 210.597C72.7712 212.548 72.7636 214.706 72.7417 216.67C72.7844 217.255 72.827 217.84 73.212 218.597C73.8255 217.964 73.6188 217.39 73.5761 216.805C73.6975 216.208 73.2983 215.256 74.2826 215.184C75.1028 215.124 75.3237 215.893 75.5304 216.466C75.7655 217.43 76.0149 218.589 75.9219 219.577C76.0336 230.162 76.8014 240.699 77.7333 251.224C78.4803 259.213 79.2273 267.201 80.6162 274.947C83.5155 289.84 84.4606 305.073 87.852 319.931C87.8662 320.126 87.8946 320.516 87.4309 320.942C86.3548 317.489 85.2644 313.842 84.1883 310.389C82.421 304.24 80.8177 298.08 79.6923 291.688C78.567 285.297 76.4716 279.172 75.6743 272.756C75.2259 268.866 74.7917 265.17 73.5373 261.534C72.6678 258.655 73.8095 256.218 74.5805 253.219C75.9847 256.648 75.2564 260.232 76.8388 263.844C76.0076 250.173 75.0691 237.294 73.9524 224.232Z" fill="white"/>
<path d="M38.7907 74.3708C40.4595 74.6416 42.2924 74.9003 43.9612 75.1711C45.63 75.4418 47.3131 75.9077 49.0103 76.5687C46.1003 77.3692 43.0765 76.6087 39.9456 76.6407C41.8637 78.0703 43.982 77.7198 46.3639 78.7232C44.7661 79.4281 43.4396 79.3286 42.2629 79.022C37.5845 78.1859 32.7705 77.752 27.9423 77.123C24.2766 76.6055 21.0034 74.6861 17.3377 74.1685C16.8456 74.2044 16.325 73.85 16.4464 73.2526C16.5678 72.6553 17.2239 72.6075 17.716 72.5716C19.0426 72.6711 20.5189 72.5635 21.8597 72.8582C23.1862 72.9577 24.1562 72.6908 24.7271 71.4722C25.2837 70.0585 26.432 69.9748 27.7443 69.8792C40.2681 69.7513 52.863 70.599 65.2152 72.6415C65.8855 72.7888 66.5417 72.741 66.7768 73.7047C62.7469 74.9792 58.5322 73.717 54.4597 74.4061C56.9629 74.8122 59.2879 75.0351 61.7911 75.4412C62.4615 75.5885 63.717 74.7124 63.6524 76.0903C63.5595 77.0779 62.5326 76.5642 61.8765 76.612C54.6019 76.3574 47.4345 75.3103 40.103 74.2752C39.5967 74.1159 39.1188 74.3469 38.6267 74.3828C38.7907 74.3708 38.7907 74.3708 38.7907 74.3708Z" fill="white"/>
<path d="M139.766 133.907C141.605 136.519 145.072 134.305 147.646 135.686C154.164 139.135 160.261 143.595 166.479 147.457C166.822 147.629 167 147.812 167.192 148.19C167.563 148.752 168.412 149.082 167.812 149.911C167.363 150.532 166.814 149.787 166.308 149.628C164.61 148.967 162.913 148.306 161.052 147.657C158.862 147.032 157.179 146.566 156.966 143.639C156.838 141.883 152.074 139.876 150.491 140.776C149.863 141.214 149.193 141.067 148.672 140.712C145.413 138.988 142.169 137.459 138.91 135.735C138.403 135.575 137.719 135.233 138.004 134.624C138.14 134.221 138.604 133.795 139.766 133.907Z" fill="white"/>
<path d="M100.544 179.53C100.102 177.993 100.509 176.786 100.409 175.42C100.31 174.054 102 172.361 99.7683 171.151C99.426 170.98 99.8186 169.578 99.9257 168.785C100.583 164.226 102.089 159.996 102.418 155.46C102.525 154.668 102.81 154.059 103.823 154.377C104.836 154.696 105.057 155.464 104.785 156.269C104.243 157.878 103.686 159.291 103.308 160.888C103.023 161.498 102.438 162.521 104.078 162.402C105.062 162.33 105.133 163.306 105.012 163.903C105.29 165.452 101.578 177.885 100.544 179.53Z" fill="white"/>
<path d="M157.413 122.616C157.114 123.03 156.457 123.078 156.115 122.907C151.694 121.071 146.865 120.442 143.001 117.193C141.96 116.484 140.769 115.982 139.564 115.285C139.043 114.931 138.194 114.6 138.466 113.796C138.737 112.991 139.35 112.358 140.349 112.482C140.513 112.47 140.677 112.458 140.841 112.446C144.014 112.999 155.574 120.004 157.413 122.616Z" fill="white"/>
<path d="M73.1472 190.55C71.8644 186.524 72.8923 182.525 72.6079 178.623C71.8085 181.231 72.0218 184.158 71.0584 186.779C70.4022 186.826 70.224 186.643 70.1955 186.253C70.4175 182.51 70.4612 178.583 70.6832 174.84C70.6547 174.449 70.9401 173.84 71.2398 173.426C71.9889 172.39 72.3672 170.794 74.0503 171.259C75.8974 171.713 75.1909 173.334 75.1122 174.517C74.6333 179.26 74.3326 184.186 73.8536 188.929C73.718 189.331 73.9247 189.905 73.1472 190.55Z" fill="white"/>
<path d="M192.684 140.448C188.919 138.564 185.617 136.255 182.765 133.324C181.517 132.041 182.045 130.237 182.424 128.641C182.845 127.629 183.529 127.971 184.064 128.521C188.079 131.563 190.688 135.689 192.684 140.448Z" fill="white"/>
<path d="M18.1273 82.7424C14.2757 84.2 11.2093 82.8541 8.1286 81.3131C7.27997 80.9826 7.70099 79.9711 7.82238 79.3737C8.62176 76.7653 13.4292 74.8456 15.3758 76.6655C16.4453 77.7645 17.8003 78.2543 19.0339 79.3414C17.7216 79.4371 16.4093 79.5327 15.097 79.6283C14.4408 79.6761 13.4281 79.3576 13.3352 80.3452C13.228 81.1377 14.3905 81.2491 15.0751 81.5916C15.9237 81.9221 17.0862 82.0336 18.1273 82.7424Z" fill="white"/>
<path d="M208.921 152.8C207.758 152.689 207.031 151.761 206.318 151.028C203.644 148.28 200.835 145.935 197.725 144.004C197.205 143.649 196.684 143.295 196.314 142.733C195.052 141.256 195.772 139.83 196.849 138.771C198.076 137.504 198.697 139.225 199.231 139.774C202.483 143.657 205.57 147.552 208.821 151.434C208.85 151.824 209.37 152.179 208.921 152.8Z" fill="white"/>
<path d="M172.205 151.356C178.752 155.195 183.429 160.543 187.957 166.098C182.516 161.59 174.486 160.017 172.205 151.356Z" fill="white"/>
<path d="M150.311 115.679C147.587 114.505 145.041 113.513 142.495 112.522C140.634 111.873 138.923 111.016 137.061 110.367C135.528 109.694 134.951 108.56 135.493 106.951C135.75 105.951 136.528 105.306 137.554 105.82C141.869 108.448 146.497 110.857 150.226 114.509C150.24 114.704 150.09 114.911 150.311 115.679Z" fill="white"/>
<path d="M169.616 124.866C164.631 122.09 159.225 120.326 154.854 116.917C154.676 116.734 154.334 116.563 154.155 116.38C153.621 115.83 153.25 115.269 153.685 114.452C154.12 113.636 154.969 113.967 155.653 114.309C159.747 116.169 163.541 118.442 167.049 121.325C167.954 122.436 169.324 123.121 169.616 124.866Z" fill="white"/>
<path d="M133.212 68.8637C133.284 69.8394 133.027 70.8389 132.427 71.6673C130.686 74.9328 129.109 78.1865 127.875 81.6113C127.739 82.0135 127.618 82.6109 126.947 82.4635C126.277 82.3162 126.398 81.7189 126.534 81.3166C126.849 76.5856 127.848 72.1971 130.531 68.2744C130.816 67.6651 131.088 66.8607 132.1 67.1792C132.935 67.3146 132.992 68.0951 133.212 68.8637Z" fill="white"/>
<path d="M93.0201 207.541C92.6362 202.273 92.2381 196.809 91.8542 191.54C91.8115 190.955 91.9187 190.162 92.7246 189.907C93.5306 189.653 94.2294 190.19 94.4361 190.764C94.6428 191.337 95.0278 192.094 94.9064 192.691C94.6057 197.617 94.141 202.555 93.6763 207.493C93.3482 207.517 93.1841 207.529 93.0201 207.541Z" fill="white"/>
<path d="M133.868 132.178C130.859 131.613 128.013 131.036 125.153 130.263C123.47 129.797 123.193 128.248 122.601 126.918C122.216 126.161 123.022 125.907 123.542 126.261C127.115 127.766 130.838 129.064 134.411 130.569C134.917 130.729 135.602 131.071 135.33 131.876C135.045 132.485 134.375 132.338 133.868 132.178Z" fill="white"/>
<path d="M89.346 243.12C88.4263 241.813 88.505 240.631 88.4055 239.265C88.0424 236.545 87.6793 233.825 86.8241 231.141C86.6032 230.372 86.2182 229.616 86.8175 228.787C87.431 228.154 87.9658 228.704 88.6361 228.851C89.6488 229.17 90.1978 229.914 90.1191 231.097C89.9901 233.853 89.8611 236.609 89.732 239.364C89.6533 240.547 90.0667 241.694 89.346 243.12Z" fill="white"/>
<path d="M156.461 138.968C160.655 137.681 167.215 141.715 168.555 146.522C164.405 143.881 160.611 141.608 156.461 138.968Z" fill="white"/>
<path d="M91.1491 218.075C89.8236 213.463 89.9887 208.939 89.4834 204.268C89.4123 203.292 89.327 202.122 90.6393 202.026C92.1156 201.918 92.2152 203.284 92.1222 204.272C92.1212 208.784 91.2999 213.356 91.1491 218.075Z" fill="white"/>
<path d="M98.4397 180.075C97.7333 181.696 97.0268 183.317 96.1421 184.754C96.1432 180.242 96.8288 176.073 98.292 171.258C99.8602 174.675 98.8968 177.295 98.4397 180.075Z" fill="white"/>
<path d="M98.4397 180.075C100.329 181.114 99.9795 183.102 99.6011 184.698C99.1298 187.283 98.1521 189.708 97.2314 192.914C96.7119 188.048 97.7398 184.049 98.4397 180.075Z" fill="white"/>
</g>
<defs>
<clipPath id="clip0_43_290">
<rect width="200" height="311.475" fill="white" transform="translate(0.163208 15) rotate(-4.16764)"/>
</clipPath>
</defs>
</svg>
