<svg width="513" height="513" viewBox="0 0 513 513" fill="none" xmlns="http://www.w3.org/2000/svg">
<path d="M424.722 80.0366H88.7217C73.8744 80.0525 59.6398 85.9576 49.1412 96.4562C38.6426 106.955 32.7376 121.189 32.7217 136.037V376.037C32.7376 390.884 38.6426 405.118 49.1412 415.617C59.6398 426.116 73.8744 432.021 88.7217 432.037H424.722C439.569 432.021 453.804 426.116 464.302 415.617C474.801 405.118 480.706 390.884 480.722 376.037V136.037C480.706 121.189 474.801 106.955 464.302 96.4562C453.804 85.9576 439.569 80.0525 424.722 80.0366V80.0366ZM410.542 172.667L266.542 284.667C263.734 286.85 260.278 288.035 256.722 288.035C253.165 288.035 249.71 286.85 246.902 284.667L102.902 172.667C101.21 171.389 99.7887 169.788 98.721 167.956C97.6533 166.125 96.9603 164.099 96.6822 161.997C96.4041 159.895 96.5464 157.759 97.101 155.713C97.6556 153.667 98.6113 151.751 99.9127 150.077C101.214 148.404 102.835 147.005 104.681 145.964C106.528 144.922 108.563 144.257 110.669 144.009C112.774 143.76 114.908 143.933 116.946 144.516C118.984 145.099 120.886 146.082 122.542 147.407L256.722 251.767L390.902 147.407C394.257 144.873 398.475 143.762 402.643 144.313C406.811 144.865 410.594 147.035 413.175 150.354C415.756 153.673 416.926 157.875 416.434 162.05C415.941 166.226 413.824 170.039 410.542 172.667Z" fill="white"/>
</svg>
