<svg width="40" height="40" viewBox="0 0 40 40" fill="none" xmlns="http://www.w3.org/2000/svg">
<path d="M20 2.5C13.0992 2.5 7.5 7.53984 7.5 13.75C7.5 23.75 20 37.5 20 37.5C20 37.5 32.5 23.75 32.5 13.75C32.5 7.53984 26.9008 2.5 20 2.5ZM20 20C19.0111 20 18.0444 19.7068 17.2221 19.1573C16.3999 18.6079 15.759 17.827 15.3806 16.9134C15.0022 15.9998 14.9031 14.9945 15.0961 14.0245C15.289 13.0546 15.7652 12.1637 16.4645 11.4645C17.1637 10.7652 18.0546 10.289 19.0245 10.0961C19.9945 9.90315 20.9998 10.0022 21.9134 10.3806C22.827 10.759 23.6079 11.3999 24.1573 12.2221C24.7068 13.0444 25 14.0111 25 15C24.9986 16.3256 24.4713 17.5966 23.5339 18.5339C22.5966 19.4713 21.3256 19.9986 20 20Z" fill="white"/>
</svg>
