<svg width="513" height="513" viewBox="0 0 513 513" fill="none" xmlns="http://www.w3.org/2000/svg">
<path fill-rule="evenodd" clip-rule="evenodd" d="M342.745 48.8262C369.825 59.9988 394.428 76.4174 415.137 97.1367C435.884 117.677 452.339 142.138 463.544 169.096C474.749 196.055 480.482 224.972 480.407 254.167C480.347 376.577 380.277 476.167 257.347 476.167H257.257C220.03 476.18 183.389 466.899 150.657 449.167L32.4072 480.037L64.0572 365.037C44.4982 331.318 34.2228 293.018 34.2772 254.037C34.3272 131.617 134.407 32.0367 257.347 32.0367C286.642 31.9476 315.664 37.6536 342.745 48.8262ZM257.267 438.697H257.347C359.537 438.697 442.707 355.917 442.747 254.177C442.652 205.117 423.073 158.104 388.318 123.478C353.563 88.852 306.477 69.4491 257.417 69.5367C155.147 69.5367 71.9372 152.307 71.9372 254.037C71.8997 288.784 81.7311 322.828 100.287 352.207L104.697 359.207L85.9672 427.297L156.137 408.977L162.907 412.977C191.498 429.825 224.081 438.706 257.267 438.697Z" fill="white"/>
<path fill-rule="evenodd" clip-rule="evenodd" d="M257.347 438.697H257.267C224.081 438.706 191.498 429.825 162.907 412.977L156.137 408.977L85.9672 427.297L104.697 359.207L100.287 352.207C81.7311 322.828 71.8997 288.784 71.9372 254.037C71.9372 152.307 155.147 69.5367 257.417 69.5367C306.477 69.4491 353.563 88.852 388.318 123.478C423.073 158.104 442.652 205.117 442.747 254.177C442.707 355.917 359.537 438.697 257.347 438.697ZM320.957 282.457C326.037 284.307 353.467 297.727 359.037 300.507C364.617 303.277 368.337 304.677 369.727 306.987C371.117 309.297 371.107 320.397 366.477 333.357C361.847 346.317 339.557 358.147 328.847 359.737C319.247 361.167 307.097 361.757 293.747 357.537C282.957 354.201 272.349 350.303 261.967 345.857C206.057 321.827 169.517 265.797 166.757 262.097L166.636 261.934C163.459 257.682 143.997 231.627 143.997 204.717C143.997 177.437 158.397 163.997 163.507 158.437C165.374 156.321 167.657 154.612 170.214 153.418C172.771 152.224 175.546 151.57 178.367 151.497C182.057 151.497 185.807 151.537 189.057 151.697C192.477 151.867 197.067 150.397 201.597 161.217C206.237 172.327 217.387 199.637 218.777 202.407C220.167 205.177 221.087 208.417 219.237 212.117C217.387 215.817 216.457 218.137 213.667 221.377C210.877 224.617 207.817 228.607 205.307 231.097C202.517 233.857 199.617 236.867 202.867 242.417C206.117 247.967 217.297 266.127 233.867 280.837C255.157 299.737 273.127 305.587 278.697 308.367C284.267 311.147 287.517 310.737 290.767 306.987C294.017 303.237 304.707 290.797 308.417 285.237C312.127 279.677 315.877 280.607 320.957 282.457Z" fill="white"/>
</svg>
