<?xml version="1.0" encoding="utf-8"?>
<!-- Generator: Adobe Illustrator 22.0.0, SVG Export Plug-In . SVG Version: 6.00 Build 0)  -->
<svg version="1.1" id="Capa_1" xmlns="http://www.w3.org/2000/svg" xmlns:xlink="http://www.w3.org/1999/xlink" x="0px" y="0px"
	 viewBox="0 0 1792.2 597.3" style="enable-background:new 0 0 1792.2 597.3;" xml:space="preserve">
<style type="text/css">
	.st0{fill:#0057A3;stroke:#000000;stroke-miterlimit:10;}
	.st1{fill:#7FC8F0;}
	.st2{fill:#83CCF1;}
	.st3{fill:#8ACFF2;}
	.st4{fill:#88CEF1;}
	.st5{fill:#AFDDF6;}
	.st6{fill:#B3E0F7;}
	.st7{fill:#BFE3F7;}
	.st8{fill:#C0E4F5;}
	.st9{fill:#D8EFFA;}
	.st10{fill:#96D4F3;}
	.st11{fill:#BAE2F7;}
	.st12{fill:#7EC9F0;}
	.st13{fill:#A2D8F3;}
	.st14{fill:#6AB4D9;}
	.st15{fill:#A7412E;}
	.st16{fill:#6A2924;}
	.st17{fill:#130A0A;}
	.st18{fill:#722D29;}
	.st19{fill:#110B0A;}
	.st20{fill:#17080A;}
	.st21{fill:none;stroke:#000000;stroke-miterlimit:10;}
	.st22{fill:#7C2D2B;}
	.st23{fill:#F8C000;}
	.st24{fill:#F3AD1B;}
	.st25{fill:#FFFFFF;}
	.st26{fill:#ED1C24;stroke:#000000;stroke-width:0.5;stroke-miterlimit:10;}
	.st27{fill:#9AD5F4;}
	.st28{font-family:'OPTIClearfaceGothicDemiAg';}
	.st29{font-size:94.6985px;}
	.st30{letter-spacing:1.7;}
	.st31{font-size:189.3968px;}
	.st32{letter-spacing:4.3;}
</style>
<path class="st0" d="M27.3,308.1c-8.9-107.2,51.4-180.4,63-194c76.9-89.8,183.9-92.8,200-93c13-0.1,132.5,0.5,212,100
	c63,78.8,58.6,167.2,57,188c-5.9,78.2-47.8,130.7-68,153c-12.2,13.4-81.5,87.3-195,89c-104.3,1.5-172.2-59.1-185-71
	C96.2,466.1,35.4,406.5,27.3,308.1z"/>
<path class="st1" d="M105.3,469.1c0.4-0.2,0.8-0.5,1-1c0.6-1.5-1.6-3.6-3-5c-2.5-2.5-4.4-5.6-7-8c-3-2.8-7.6-8.3-14-20
	c-1.3-7.7-2.7-15.3-4-23c0.9-1.4,1.9-3.5,2-6c0.1-2.7-1-4.4-2-7c-0.9-2.3-1.8-5.6-2-10c2.2-4.2,3.8-5.1,5-5c1.2,0.1,1.7,1.1,3,1
	c1.7-0.2,2.7-2.3,3-3c1.6-3.4-0.4-4.9,1-9c0.5-1.4,1.1-2.4,1-4c-0.1-1.3-0.6-2.3-1-3c0.7-1.2,2.1-4.1,2-8c-0.1-3.3-1.3-5.8-2-7
	c0.2-0.9,0.6-1.9,1-3c0.6-1.6,1.3-2.9,2-4c7.8-7,10.3-16.2,7-22c-0.7-1.2-2.3-3.4-6-5c-0.3-1.7-0.7-3.3-1-5c-0.4-0.7-1.3-2-3-3
	c-1.2-0.7-2.3-0.9-3-1c-0.8-0.1-1.9-0.3-3-1c-2-1.2-2.6-2.9-4-3c-0.5,0-1.1,0.1-2,1c-0.3-6.1-3.5-10.5-7-11c-0.7-0.1-2.1-0.1-4,1
	c1.8-2,2.4-3.7,2-5c-0.7-2-3.6-2.1-4-4c-0.4-1.8,2.1-2.8,2-5c-0.1-1.8-1.7-3.2-3-4c0.4-0.8,2.6-6.1,0-12c-2.6-5.9-8.2-7.7-9-8
	c1.5-2.6,1.4-4.1,1-5c-0.7-1.4-2-1.2-3-3c-0.6-1.1-0.4-1.6-1-4c-0.3-1.3-0.7-2.4-1-3c0-0.7-0.1-1.8,0-3c0.1-3.2,0.6-4.5,0-5
	c-0.4-0.4-1.5-0.4-4,1c-0.8-0.9-1.8-2.3-2-4c-0.3-2.1,0.5-3.7,0-4c-0.3-0.2-1.1,0.1-3,2c-0.1-1.8-0.4-2.8-1-3c-1.1-0.3-3.1,2.3-6,8
	c-2.4,10.6-4.4,23.4-5,38c-0.5,12.3,0,23.4,1,33c1.8,6.7,2.6,12.3,3,16c1,9.6,0.2,15.5,4,22c1.7,2.9,3.7,4.8,5,6
	c1.5,9.2,3.9,20.1,8,32c5.1,14.7,11.3,26.7,17,36c3.9,8.1,9.4,17.8,17,28C90.8,455.2,98.6,463.1,105.3,469.1z"/>
<path class="st2" d="M77.3,133.1c-0.7-0.6,11.4-16.5,27-32c9.4-9.3,18.7-16.9,27-23c7.4-6.1,16.4-12.7,27-19
	c13.1-7.8,25.5-13.2,36-17c0.4,0.2,0.9,0.5,1,1c0.1,1.2-2.6,2.4-4,3c-2.6,1.2-6.2,3-11,6c-0.3,1.4-0.2,1.9,0,2c0.7,0.4,2.5-2.4,4-2
	c0.5,0.1,0.8,0.6,1,1c-1.2,1.8-2.9,3.9-5,6c-3.6,3.5-7.3,5.7-10,7c0.4,1.5,0,3-1,4c-1.2,1.1-2.7,1-3,1c0.1,0.5,0.4,2.8-1,5
	c-2,3-5.7,3-6,3c-0.7,0.4-1.7,0.8-3,1c-1.5,0.2-1.8-0.1-3,0c-2.7,0.3-3,2.1-5,2c-1.3-0.1-1.4-0.9-4-2c-1.2-0.5-2.3-0.8-3-1
	c-0.1,0.3-0.6,1.4-2,2c-1.5,0.6-2.8,0.1-3,0c-0.1,0.4-0.2,0.8,0,1c0.4,0.4,1.6-0.4,2,0c0.4,0.4-0.1,1.8-1,3c-1.4,1.8-3.1,1.8-5,3
	c-1.2,0.8-2.8,2.2-4,5c0,1.4,0.2,2.6,1,3c1.2,0.6,3.2-2.5,4-2c0.4,0.2,0.4,1.3,0,2c-0.7,1.3-2.3,0.8-5,2c-2.3,1.1-2.6,2.1-4,2
	c-1.5-0.1-2-1.3-3-1c-1.3,0.4-1.3,3-2,3c-0.6,0-0.6-2.3-2-3c-0.7-0.4-1.5-0.2-2,0c-0.7,0.1-1.9,0.3-3,1c-3.4,2.1-3,6-6,8
	c-1.7,1.1-2.8-0.2-5,1c-1.5,0.8-2.2,1.9-3,3c-4.4,5.8-9,5-11,10c-0.6,1.4-0.3,1.8-1.1,3.2c-0.7,1.3-1.7,2.2-4.9,4.8
	C78.6,132.2,77.3,133.2,77.3,133.1z"/>
<path class="st3" d="M141.3,93.1c-0.1-0.5-0.3-1.2,0-2c0.3-1,1.1-1.7,4-3c1.2-0.6,2.9-1.3,5-2c0.3,0.1,1.4,0.6,2,2
	c0.6,1.5,0.1,2.8,0,3c-1.6,1.6-2.8,2.8-4,4c-0.9,0.9-1.7,1.7-3,2c-0.8,0.2-1.5,0.1-2,0c0.6-1,0.6-2.2,0-3
	C142.6,93.2,141.4,93.1,141.3,93.1z"/>
<path class="st3" d="M141.3,83.1c0.3,0,0.7,0,1,0l0,0c0.5,0,1,0.5,1,1s-0.5,1-1,1c-0.3,0-0.7,0-1,0c-0.5,0-1-0.5-1-1
	S140.7,83.1,141.3,83.1z"/>
<path class="st3" d="M154.3,84.1c0.3,0,0.7,0,1,0s0.7,0,1,0c0.5-0.5,0.5-1.5,0-2c-0.5-0.5-1.5-0.5-2,0
	C153.6,82.8,153.8,83.9,154.3,84.1z"/>
<path class="st4" d="M207.3,37.1c0.1,0.3,0.2,0.6,0,1c-0.3,0.6-1.1,0.7-2,1c-1.1,0.4-0.8,0.6-3,2c-1.8,1.1-2.3,1.2-3,2
	c-0.6,0.7-0.9,1.5-1,2c1.4,0.4,1.9,0.2,2,0c0.2-0.2-0.1-0.5,0-1c0.1-0.5,0.6-0.8,1-1c0.6,0,1.4,0,2,0c1.7,0,1.8,0,2,0
	c0.3,0,1.5,0,4-1c3.2-1.2,4.8-1.8,6-3c0.7-0.7,1.5-1.8,3-2c0.4-0.1,0.8,0,1,0c0.1,0.2,2.3,2.6,5,2c0.9-0.2,1.6-0.6,2-1
	c0.2,0.1,1.5,0.6,3,0c1.4-0.6,1.9-1.7,2-2c2.9-2.1,7.3-4.6,13-6c2.2-0.5,4.2-0.8,6-1c0.5-0.2,1.2-0.6,2-1c2-1,1.9-1,2-1
	c1.9-0.7,2.8-0.2,4-1c0.5-0.3,0.8-0.7,1-1c-5.3,0.7-11,1.7-17,3c-5.7,1.2-11,2.6-16,4c-0.2,0.3-0.5,0.7-1,1c-1.7,1.1-3.8,0.1-4,0
	c-1.3,0.3-2.7,0.7-4,1c-0.9,0.1-1.8,0.4-2,1c-0.1,0.4,0.2,0.7,0,1c-0.3,0.5-1.7,0.1-2,0C212,35.8,210.2,35.8,207.3,37.1z"/>
<path class="st4" d="M217.3,63.1C217.2,63.1,217.2,63.1,217.3,63.1c-0.9-0.1-1.7-0.6-2-1c-0.6-0.7,0.1-1.4,0-3c-0.1-1.6-0.9-1.9-1-3
	c-0.3-2.5,3.4-4.9,5-6c1.5-1,4.2-2.4,8-3c0.4-0.7,1.3-2,3-3c1.2-0.7,2.3-0.9,3-1c3.2-3.3,6.3-4.5,8-5c2.6-0.8,5.4-0.9,8-1
	c1.7-0.1,3,0,4,0c1.2-0.7,1.7-1.4,2-2c0.5-0.9,0.4-1.6,1-2c0.6-0.4,1.4-0.4,2,0c0.6,0.4,0.6,1,1,1c0.3,0,0.5-0.5,1-1
	c0,0,0.8-0.8,2-1c1.5-0.2,2.7,0.8,3,1c0.4-0.5,1-1.3,2-2c2.1-1.5,3.5-0.9,7-2c2.9-0.9,2.7-1.6,5-2c1.9-0.3,2.6,0.1,5,0
	c1.4,0,3.5-0.2,6-1c0.9-0.1,2.4-0.3,4-1c1.4-0.6,2.4-1.4,3-2c10.4,0.2,22.1,1,35,3c10.3,1.6,19.7,3.7,28,6c0.2,0.1,0.8,0.4,1,1
	c0,0.1,0.3,0.7,0,1c-0.2,0.2-0.6,0.1-1,0c-0.5-0.1-1.2-0.1-2,0c-0.2,0.3-0.5,0.7-1,1c-0.8,0.4-1.6,0.1-2,0c-1.2-0.4-3.1-0.7-6-1
	c-2-0.1-3.7-0.1-5,0c-3.7,0.2-4.5,0.6-5,1c-1,0.8-1,1.4-2,2c-1.3,0.7-2.8,0.4-4,0c-0.6-0.2-1.4-0.4-2,0c-0.7,0.5-0.3,1.5-1,2
	c-0.8,0.6-1.6-0.4-3,0c-1.5,0.4-1.7,1.9-3,2c-0.8,0.1-1.5-0.5-2-1c-1,0.6-2.7,1.6-5,2c-2.1,0.4-3.9,0.2-5,0c-0.3,0.4-1.3,1.6-3,2
	c-0.8,0.2-1.5,0.1-2,0c-0.2,0.2-0.6,0.6-1,1c-2.7,2.6-3.6,2.9-4,3c-0.5,0.1-1.3,0.3-2,0c-0.9-0.4-1-1.2-2-2c-0.7-0.6-1.5-0.9-2-1
	c-1.1,0.2-1.9,1-2,2c-0.1,0.8,0.3,1.5,1,2c-2.1-0.1-4.5-0.1-7,0c-3,0.2-5.7,0.5-8,1c-1-0.3-2-0.7-3-1s-2-0.7-3-1c-9,0.8-12.6,2-14,3
	c-0.3,0.3-1.6,1.2-3,1c-0.7-0.1-1-0.5-2-1c-0.7-0.4-1.7-0.8-3-1c-1.7,0.1-3.8,0.4-6,1c-3.9,1-6.9,2.6-9,4c-5.3-0.6-8.2,0.7-10,2
	c-1.5,1.1-2.5,2.5-5,4C220.3,62.3,218.5,62.8,217.3,63.1z"/>
<path class="st4" d="M295.3,69.1c0,0.5-0.5,1-1,1s-1-0.5-1-1c-1.4-0.4-2.4-0.3-3,0c-0.9,0.4-1.2,1-2,1c-0.8,0.1-1.5-0.5-2-1
	c-0.6-0.2-1.3-0.4-2,0c-0.6,0.3-0.5,0.7-1,1c-1,0.5-1.9-0.5-3,0c-0.4,0.2-0.7,0.5-1,1c-0.1-0.4-0.5-1.9-2-3c-1.2-0.9-2.5-1-3-1
	c-0.7-2.5-0.4-3.5,0-4c0.2-0.2,0.5-0.4,1-1c0.6-0.7,0.7-1,1-1c0.4,0,0.4,0.7,1,1c0.3,0.2,0.7,0.1,1,0c-0.4-1.7,0-3.4,1-4
	c0.9-0.6,2.2-0.2,3,0c0.9,0.3,1.6,0.7,2,1c-0.4,1.1-0.1,1.8,0,2c0.6,1.2,2.7,1.9,5,1c0.1,0.3,0.7,1.5,2,2c1.3,0.5,2.9,0.1,4-1
	c0.3,0.3,1,1.4,1,3C296.3,66.5,296.2,67.9,295.3,69.1z"/>
<path class="st5" d="M286.3,112.1c-0.4-0.7-1.3-2-3-3c-2.2-1.2-4.3-1.1-5-1c-0.4,0.6-1,1.3-2,2c-2.1,1.4-4.3,1.1-5,1
	c0.1,2.2-0.5,3.3-1,4c-1.3,1.6-3.2,1.4-4,3c-0.5,1-0.3,2.2,0,3c1.4,1.1,2.4,1.2,3,1c0.7-0.2,1-0.7,2-1c0.7-0.2,1.4-0.1,2,0
	c2,0.3,3.7,0.7,5,1c0.4-2.1,1.3-3.3,2-4c1.3-1.3,2.5-1.5,4-3C285.3,114,285.9,112.9,286.3,112.1z"/>
<path class="st6" d="M296.3,99.1c-0.3,0.5-1,1.3-2,2c-1.7,1.1-3.4,1-4,1c-0.4,0.2-0.9,0.5-1,1c-0.1,0.8,1.1,1.4,1,2
	c-0.1,0.4-0.7,0.8-3,1c-0.1,0.3-0.3,1.1,0,2c0.5,1.4,1.8,1.9,2,2c-0.3,1-0.7,2-1,3c0.2,0.2,0.5,0.6,1,1c1,0.7,1.5,0.5,2,1
	c0.9,0.8,0.8,2.8,0,4c-0.3,0.5-0.7,0.8-1,1c-0.4,0.7-0.8,0.9-1,1c-1.1,0.5-2.8-0.3-4-2c-0.3,0.3-0.8,1-1,2c-0.2,0.9-0.1,1.6,0,2
	c-0.2-0.1-1.1-0.4-2,0c-0.2,0.1-1,0.4-1,1c0,0.6,0.8,1,2,2c0.9,0.8,1.6,1.5,2,2c-2.2-0.5-2.8-0.3-3,0c-0.2,0.3,0.2,0.9,0,1
	c-0.3,0.2-0.9-0.9-2-1c-0.7-0.1-1.7,0.2-2,1c-0.2,0.7,0.2,1.6,1,2c0.4,0.4,1.1,1,2,1c1,0,1.4-0.7,2.4-0.6c1.2,0.1,1.5,1.2,2.6,1.6
	c0.8,0.3,2,0.3,4-1c1.2,1.6,3.2,2.4,5,2c1.8-0.4,2.7-1.6,3-2c2.3,0,4.3-1.2,5-3c0.5-1.3,0.2-2.5,0-3c-1.3,0-2.7,0-4,0
	c0.5-1.5,1.3-4.6,0-8c-0.3-0.8-0.6-1.4-1-2c0.1-0.5,0.4-1.7,0-3c-0.5-1.7-1.6-2.7-2-3c4.5-1.3,7.2-3.4,7-5c0-0.3-0.3-1.2-2-2
	c-1.6,0.3-1.9,0.2-2,0c-0.1-0.3,0.6-0.7,2-2c0.4-0.4,0.8-0.8,1-1c-0.7-0.3-1.7-0.8-3-1C298,98.9,297,99,296.3,99.1z"/>
<path class="st7" d="M237.3,179.1c0.3-2.9,0.7-5.3,1-7c0.3-1.6,0.5-2.3,1-3c1.2-1.8,2.6-1.6,4-3c1.6-1.6,1-3.1,2-6
	c0.6-1.6,1.6-3.7,4-6c2.3-0.7,3.9-0.4,5,0c1.6,0.6,2.1,1.6,4,2c1.6,0.3,1.7-0.3,3,0c2.1,0.5,2.6,2.2,5,4c0.8,0.6,2.1,1.4,4,2
	c0.6,0,4.5-0.5,7-4c2.9-4.1,1.1-8.6,1-9c0.3-0.7,0.7-1.3,1-2c0.1-0.5,0.2-1.2,0-2c-0.4-1.6-1.5-2.3-3-4c-0.5-0.6-1.3-1.6-2-3
	c0.8-0.8,1.5-1,2-1c1.8,0,2.5,2.4,5,3c0.8,0.2,1.5,0.1,2,0c1.3,0.4,1.8,0.2,2,0c0.3-0.4-0.1-0.9,0-2c0.1-0.6,0.4-1.8,1-2
	c1.1-0.3,2.1,3,4,3c1.6,0,2.2-2.1,4-2c0.9,0,1.6,0.6,2,1c0.3-1.1,0.8-2.5,2-3c0.8-0.3,1.5-0.1,3,0c1,0.1,2.3,0.1,4,0
	c0.5,0,1.8-0.1,3-1c1.5-1.1,1.9-2.6,2-3c2.3,0,4.7,0,7,0v38l-18,4c-0.5-1.8-1.3-2.6-2-3c-1.1-0.6-2.1-0.3-4-1c-0.9-0.3-1.6-0.7-2-1
	c-0.6,0.1-1.4,0.3-2,1c-0.8,0.8-0.7,1.8-1,3c-0.2,1-0.7,2.4-2,4c-0.7-0.3-1.7-0.8-3-1c-1.2-0.2-2.3-0.1-3,0c-7,5.3-14,10.7-21,16
	l-13-4c-0.3-1-0.8-2.5-2-4C241.8,180,238.3,179.3,237.3,179.1z"/>
<path class="st8" d="M179.3,241.1c-0.2-0.2-0.6-0.6-1-1c-2-2-2.8-2.2-3-3c-0.1-0.6,0.2-1.6,2-3c3.1-0.1,4.4-1.1,5-2
	c0.8-1.2,0.4-2.2,1-4c0.7-1.9,2-3.2,3-4c1.3,0.9,2.3,1.1,3,1c2.9-0.2,4-3.9,8-8c1.9-1.9,3.7-3.2,5-4c0.2-0.3,0.5-0.8,1-1
	c1.1-0.4,1.8,0.8,3,1c2.7,0.5,4.4-4.8,8-5c1-0.1,2,0.3,3,1c1.5-3,2.9-5.3,4-7c2.7-4.1,3.9-4.8,5-5c1.7-0.3,3.2,0.5,4,1
	c0.5-0.7,1.3-1.7,2-3c1-1.8,1.2-2.6,2-3c0.7-0.3,1.9-0.4,4,1c0.7-0.5,1.4-1.1,2-2c1-1.4,1-2.5,2-3c0.7-0.3,1.5-0.2,2,0
	c0.3,4,0.7,8,1,12c-0.9,2.6-2.3,6.2-5,10c-3.1,4.4-6.6,7.3-9,9c-3.6,4.2-11,11.8-23,17C195.9,241.5,184.8,241.5,179.3,241.1z"/>
<path class="st9" d="M189.3,269.1l68-63l17-10c13,10.7,26,21.3,39,32c-1.3,36-2.7,72-4,108l-57,11l3-8c-1-1.2-2.7-2.7-5-4
	c-5.1-2.7-8.7-1.5-11-4c-1.1-1.2-2-3.4-1-8c-2.7-1.9-4.7-2.2-6-2c-2.2,0.3-3.3,1.6-5,1c-0.9-0.3-1.1-0.9-3-2c-0.8-0.5-1.5-0.8-2-1
	c-0.8,0.1-1.9,0.3-3,1c-1.2,0.8-1.2,1.5-2,2c-1.9,1.3-5.7,0.2-8-2c-1.6-1.6-1.3-2.6-3-4c-1.7-1.4-3.6-1.9-5-2c-1.3-0.2-2.3-0.1-3,0
	c-2.4,0.3-3.3,1.3-5,1c-0.5-0.1-0.7-0.2-2-1c-4.9-2.9-4.9-2.9-5-3c-0.8-0.7-2.4-2.4-3-6C185.3,293.1,187.3,281.1,189.3,269.1z"/>
<path class="st10" d="M374.3,43.1c0.7,0.3,1.7,0.8,3,1c1.2,0.2,2.3,0.1,3,0c1.7-0.7,3.4-0.1,4,1c0.4,0.8,0.1,1.7,0,2
	c-0.5-0.8-1.3-1.2-2-1c-0.6,0.2-0.9,0.8-1,1c-0.3,0.6-0.5,1.6,0,2c0.5,0.4,1.2-0.3,2,0c0.7,0.3,0.9,1.2,1,2c0,0.1-0.8,1.1-2,1
	c-1.1-0.1-1.9-1.2-2-2c0-0.4,0.1-0.6,0-1c-0.2-0.5-0.6-0.8-1-1c-1.6,2.2-4.2,3-6,2c-1.6-0.8-1.9-2.7-2-3c-0.1-0.3-0.3-1.1,0-2
	C371.7,44,372.9,43.2,374.3,43.1z"/>
<path class="st10" d="M372.3,101.1c0-26,0-26,0-26l2-1c0.5,0.1,1.2,0.4,2,1c0.4,0.3,0.8,0.7,1,1c0.3,0.1,1.1,0.3,2,0
	c1.4-0.5,1.9-1.8,2-2c0.5,0.3,1.1,0.7,2,1c1.8,0.5,3.3,0.2,4,0c0.2,0.3,0.5,0.7,1,1c1.3,0.8,2.8,0.1,3,0c0.4,0.5,1,1.3,2,2
	c0.7,0.5,1.5,0.8,2,1c0.4,0.5,0.9,1.1,1,2c0.1,1-0.2,1.5,0,2c0.2,0.5,0.9,1,3,1c-5.3,4.7-10.7,9.3-16,14c-0.2-0.2-0.6-0.6-1-1
	c-1.3-1.4-1.5-1.7-2-2c-0.5-0.3-1.4-0.5-3,0c0,0.2,0.3,3.3-2,5C374.1,101,372.8,101.1,372.3,101.1z"/>
<path class="st10" d="M427.3,70.1c-0.1,2.3,0,5.5,1,9c2.5,8.5,8.6,13.3,11,15c0.4-0.2,0.9-0.5,1-1c0.3-1.1-1.2-2.3-2-3
	c-2.4-2.1-3.6-4.4-5-7c-1.2-2.2-2.6-4.8-2-8c0.4-1.8,1.3-3.2,2-4c-0.1-0.2-1-1.8-3-2C428.6,68.9,427.4,70,427.3,70.1z"/>
<path class="st11" d="M451.3,75.1c-0.2,0.8-0.4,1.9,0,3c0.1,0.4,0.2,0.5,1.7,2.4c2.7,3.7,2.4,3.6,3.3,4.6c0.8,0.9,1.1,1.1,1.3,1.7
	c0.4,1.4-0.7,2.4-0.3,3.3c0.2,0.5,0.9,1,3,1c-0.6,3-1.3,3.9-2,4c-2,0.3-4-6.4-6-6c-0.6,0.1-0.9,0.8-1,1c-0.9,2,1.5,4.6,4,8
	c1.5,2,3.7,5,6,9c-0.5,0.2-1.3,0.3-2,0c-0.9-0.3-1.2-1.1-2-2c-0.5-0.6-1.3-1.4-2.6-2.2c-0.7-1.7-2-2.8-3.4-2.8c-0.7,0-1.7,0.3-2,1
	c-0.3,0.9,0.4,2.2,2,3c-1.3,0-2.7,0-4,0c-0.7,0-1.3,0-2,0c-1.7,0-1.7,0.1-2,0c-1.3-0.5-0.8-2.4-2-3c-0.8-0.4-1.9,0.1-4,1
	c-0.8,0.4-1.5,0.7-2,1c-8.7,12.3-17.3,24.7-26,37l-35,25l-7,14l6,51c2.5,1.4,3.5,1.4,4,1c0.5-0.4,0.3-1.2,1-2c0.6-0.6,1.4-0.9,2-1
	c1.3,0.9,2.3,2,3,3c1,1.5,1,2.2,2,3c0.2,0.2,1.9,1.5,4,1c1-0.2,1.6-0.7,2-1c0.3-0.1,2.1-0.9,4,0c1.2,0.6,1.8,1.6,2,2
	c0,0.2,0,0.6,0,1c-0.1,1.4-0.7,1.8-1,3c-0.1,0.5,0,0.5,0,3c0,0.9,0,1.6,0,2c-0.4,0.9-1.2,2.6-3,4c-1.6,1.3-3.1,1.8-4,2
	c0,0.6-0.2,1.8-1,3c-0.7,1.1-1.5,1.7-2,2c-0.7,0-1.7,0-3,0c-1.1,0-1.5,0.1-2,0c-0.8-0.1-1.8-0.6-3-2c-0.7,0.3-0.9,0.7-1,1
	c-0.1,0.2,0,0.4,0,1c0,0.4,0,0.8,0,1c-1.3-1.3-2.7-2.7-4-4l-1,76v18l44,20c0.3-0.6,2.9-6.3,1-8c-0.5-0.4-1.1-0.5-5,0
	c-2.4,0.3-4.5,0.7-6,1c-1-1.8-2.3-2.6-3-3c-1.3-0.7-2.5-0.8-4-1c-1.7-0.2-3.1-0.1-4,0c-1.6-0.8-2-1.5-2-2c0-0.7,0.7-1,1-2
	c0.2-0.8,0.1-1.5,0-2c-0.3-0.5-0.7-1.1-1-2c-0.5-1.8-0.2-3.3,0-4c-0.8-1.9-1.8-3.9-3-6c-2-3.5-4-6.5-6-9c0.1-0.4,0.2-1.2,0-2
	c-0.4-2.3-2.2-3-3-5c-0.3-0.8-0.5-2.1,0-4c-0.4-3,0.3-4.9,1-6c0.8-1.3,1.7-1.6,2-3c0.2-1.2-0.3-1.6-1-4c-0.7-2.6-0.3-3-1-5
	c-0.3-1-0.9-2.4-2-4c0.5-3.8,0.5-8.7-1-14c-0.3-1.1-0.6-2.1-1-3c-0.2-0.3-0.4-0.9-0.5-1.6c-0.2-1.9,0.8-2.8,0.5-4.4
	c-0.2-0.8-0.4-0.8-1-2c-0.7-1.5-0.9-2.9-1-4c0.1-0.2,0.3-0.8,1-1c0.4-0.1,0.8-0.1,1,0c1.4,0.5,0.8,3.4,2,4c1.1,0.6,2.5-1.4,4-1
	c1.2,0.3,1.7,1.9,2,3c0.3,1.3,0.6,2.6,1,4c0.3,1.1,0.7,2.1,1,3c0.5,2.2,0.3,3.9,0,5c-0.4,1.6-1,2.3-1,4c0,0.8,0,2.3,1,3
	c0.6,0.4,1.1,0.3,2,1c0.5,0.4,0.8,0.7,1,1c-0.2,1.3-0.3,3,0,5c0.2,1.6,0.6,3,1,4c-0.3,0.5-0.6,1.2-1,2c-0.9,2-1.3,3.1-1,4
	c0.4,1.3,1.7,1.1,3,3c0.5,0.8,0.8,1.5,1,2c0,1.8,0.2,4.3,1,7c0.6,2,1.3,3.7,2,5c2.2,9.4,1.3,12.8,0,14c-0.3,0.3-1.5,1.3-2,3
	c-0.3,1.2-0.2,2.3,0,3c0.3,0.5,0.9,1.4,2,2c1.7,1,4.3,1.2,6,0c1-0.7,1.6-1.8,3-2c0.4-0.1,0.8,0,1,0c0.1,0.3,0.9,2.3,3,3
	c1.8,0.6,3.9,0.1,5-1c0.4-0.4,0.5-0.7,1-1c1-0.5,2.1-0.3,3,0c1.6-0.7,3-0.9,4-1c2.9-0.2,3.9,0.8,6,0c1.1-0.4,1.1-0.8,3-2
	c1.6-1,3-1.6,4-2c1.3,0.2,2.3,0.6,3,1c1,0.6,1.3,1.1,2,1c1.1-0.1,1.9-1.7,2-2c0.5-1,0.4-1.7,1-2c0.4-0.2,0.7-0.1,1,0
	c0.2,0.1,1.5,0.6,3,0c1.4-0.6,1.9-1.7,2-2c0.1,0,2.5,0.6,4-1c0.7-0.7,0.9-1.6,1-2c1-0.5,2.6-1.4,4-3c1-1.1,1.6-2.2,2-3
	c1.9-0.6,3.1-2.3,3-4c-0.1-1.9-1.8-2.9-2-3c-0.4-1-0.8-2.4-1-4c-0.2-1.6-0.1-3,0-4c-0.2-0.3-0.6-0.7-1-1c-1.2-0.9-2.4-1-3-1
	c-0.7-0.7-1.1-1.4-1-2c0.1-1.3,1.9-1.7,2-3c0.1-0.6-0.3-1.3-1-2c-0.6-0.2-1.4-0.4-2,0c-0.6,0.4-0.7,1.1-1,2c-0.3,0.8-0.8,1.9-2,3
	c-0.5,0.1-1.2,0.1-2,0c-2-0.3-3.4-1.4-4-2c-0.4,1.4-1.8,2.2-3,2c-1-0.2-1.7-1-2-2c0-0.1-0.6-1,0-2c0.4-0.7,1.2-1.1,2-1
	c0.8,0.3,1.5,0.7,2,1c1,0.6,1.4,1.1,2,1c0.5-0.1,0.8-0.6,1-1c0.1-0.3,0.1-0.6,0-1c-0.4-1.3-2.6-1.6-4-2c-1.6-0.4-3.7-1.5-6-4
	c0.7-1.5,1.3-3.4,0.5-4.6c-0.6-0.9-1.5-0.7-2.5-1.4c-3-2-3.2-9.2,0-13c0.4-0.5,0.8-0.8,1-1c0.6,0.2,1.3,0.5,2,1c1.9,1.3,2.7,3.1,3,4
	c0,1.3,0.3,7.2,5,12c3.9,3.9,8.5,4.8,10,5c1.1-0.4,1.7-0.2,2,0c0.8,0.6,0.3,2,1,4c0.3,0.9,0.7,1.6,1,2c0.6,0,2.3,0,4,1
	c2.2,1.3,2.9,3.5,3,4c1.3,1.2,2.6,1.9,4,2c0.9,0.1,1.1-0.2,2,0c2,0.3,2.1,1.6,4,2c1.2,0.3,1.4-0.2,3,0c1.3,0.2,2.3,0.6,3,1
	c3.5,2.7,4.1,4.6,4,6c-0.1,1.2-0.8,2.7,0,4c0.2,0.3,0.3,0.3,1,1c0.9,0.8,1.6,1.5,2,2c-1.5,0.8-1.9,1.5-2,2c-0.1,0.9,0.8,1.3,1,3
	c0.1,0.9-0.1,0.9,0,2c0.1,1.3,0.2,2.4,1,3c1.1,0.8,2.9,0,3,0c1-0.4,1.4-1.1,2-1c0.5,0.1,0.8,0.6,1,1c0.3,0.7,1,3.2,0,6
	c-0.8,2.2-2.3,3.5-3,4c0,1.3,0,2.7,0,4c0,1,0,2,0,3c-1.9,3-2.1,5.4-2,7c0.1,1.9,0.8,2.8,1,5c0.2,2.5-0.4,4.6-1,6
	c-0.6,0.6-1.4,1.6-2,3c-0.5,1.2-0.6,2-1,5c-0.6,5-0.8,6.2-1,7c-0.3,1.7-0.7,3.1-1,4c0,0.1-0.6,1.2,0,2c0.6,0.9,2.2,0.6,3,0
	c0.6-0.5,0.6-1.1,1-2c0.8-1.8,2.5-2.7,3-3c1.5-1,4.6-6,12-23c0.4-0.7,1-1.6,2-2c0.9-0.3,1.7-0.1,2,0c1.3,0.2,3.4-1.2,7-8
	c1.1-1.5,2.2-2.5,3-3c2-1.4,3.8-1.7,4-3c0.1-0.7-0.4-1.2,0-2c0.2-0.5,0.7-0.8,1-1c0.1-0.7,0.3-1.7,1-2c0.7-0.3,1.2,0.3,2,0
	c1-0.3,1-1.4,2-2c0.5-0.3,1.4-0.5,3,0c0.5,0.3,1.1,0.7,1,1c-0.1,0.5-1.6,0.3-2,1c-0.5,0.9,1.3,2.1,1,4c-0.1,0.9-0.6,0.9-1,2
	c-0.7,1.7,0,2.5,0,5c0,0.5-0.3,2-1,5c-0.5,2.4-0.8,3.7-1,4c-0.8,1.4-1.8,2.2-2,4c0,0.4,0,0.8,0,1c0.5,0.9,0.8,1,1,1
	c0.4-0.1,0.4-0.7,1-1c0.3-0.2,0.7-0.1,1,0c0.1,0.7,0.1,1.8,0,3c-0.3,2.7-1.3,4.7-2,6c-1,2-2.4,4.9-4,9c0.1,0.1,1.1,0.5,2,0
	c0.6-0.3,0.9-0.8,1-1c0.4,0.2,0.9,0.5,1,1c0.1,0.6-0.5,1-1,2c-0.9,1.6-0.1,2.1-1,4c-0.4,0.9-0.8,1.1-1,2c-0.2,0.8-0.1,1.5,0,2
	c0.3,0.1,0.6,0.2,1,0c0.8-0.3,0.9-1.6,1-2c0.3-1.7,1.2-2.3,3-5c3.4-5,6.3-10.4,9.5-15.5c5.2-8.4,10.4-24.1,13.5-38.5
	c1.3-5.8,4.5-22.2,4-50c-0.3-18.4-1-43.4-10-75c-2-7-10.8-36.5-32-70c-6.9-10.9-17.1-26.8-35-44C470,88.3,459.4,80.5,451.3,75.1z"/>
<path class="st12" d="M493.3,394.1c-0.7,1.8-1.5,3.1-2,4c-1.1,1.9-1.9,2.6-2,4c-0.1,1.3,0.5,2.3,1,3c1.1-0.2,1.7-0.6,2-1
	c0.7-0.9,0.2-1.5,1-3c0.5-0.9,1-1.2,1-2c0-0.4-0.2-0.8,0-1c0.2-0.2,0.6-0.1,1,0c-0.1-0.7-0.1-1.8,0-3c0.1-1.1,0.3-1.8,0-2
	C495,393,494.5,393.1,493.3,394.1z"/>
<path class="st12" d="M520.3,401.1c0-0.1-0.6-1,0-2c0.4-0.7,1.2-1.1,2-1c0.1,0.1,0.5,1.1,0,2c-0.3,0.6-0.8,0.9-1,1
	C520.9,401.1,520.6,401.1,520.3,401.1z"/>
<path class="st12" d="M517.3,409.1c-0.3,0.2-0.7,0.5-1,1c-0.9,1.4-0.4,2.6-1,4c-0.3,0.6-0.8,1.3-2,2c-2.7,3.7-5.3,7.3-8,11
	c-0.2,0.3-0.5,0.7-1,1c-0.9,0.6-1.3,0.5-2,1c-0.5,0.4-1,1.2-1,2c0.1,1,0.9,1.1,1,2c0.1,1-1,1.3-2,3c-0.8,1.4-0.4,1.9-1,3
	c-0.5,1-1.5,2.2-4,3c0.1,0.1,1,0.8,1,2c0,0.1,0,1.3-1,2c-0.2,0.1-1.5,0.6-2,2c-0.3,0.9-0.1,1.7,0,2c1.2-0.7,2.6-1.7,4-3
	c2.6-2.5,4.2-5.2,5-7c0-0.6-0.1-2.3,1-4c0.7-1,1.5-1.7,2-2c0.1-1.5,0.6-2.5,1-3c0.6-0.8,1.3-1,2-2c0.6-0.8,0.9-1.5,1-2
	c2.3-3.3,4.7-6.7,7-10c0-0.3,0-0.6,0-1c0.2-1.7,1.6-2.7,2-3c0.1-0.2,0.8-1.7,0-3C518,409.6,517.5,409.3,517.3,409.1z"/>
<path class="st13" d="M331.3,464.1c-2.3,1.4-3.9,3.8-4,4c-2.1,3.4-2.1,6.7-2,8c0.7,0.6,1.6,1.4,3,2c2.1,0.9,3.9,1,5,1
	c2.2-0.3,3.4-1.2,4-2c0.5-0.7,0.5-1.1,1-2c0.8-1.4,1.9-2.3,3-3c0.8-0.1,1.9-0.4,3-1c2.3-1.2,3.5-3.1,4-4
	C342.5,462.7,335.6,461.5,331.3,464.1z"/>
<path class="st14" d="M50.3,182.1c-0.4,0.2-1.4,0.8-2,2c-0.9,1.9-0.1,3.7,0,4c0,0.5,0.5,1,1,1s1-0.5,1-1c0.2-0.3,1.4-1.9,1-4
	C51.1,183.2,50.6,182.5,50.3,182.1z"/>
<path class="st14" d="M47.3,200.1c-0.2-0.7-0.3-1.8,0-3c0.7-3.2,3.5-4.7,4-5c0,0.7,0,1.3,0,2s0,1.3,0,2c1.9-0.2,3.5,0.7,4,2
	c0.3,0.8,0.1,1.6,0,2c-0.1,0.3-0.4,0.8-1,1c-0.9,0.4-2.2,0-3-1c-0.1,0.1-0.8,1-2,1C49.1,201.1,48,201.1,47.3,200.1z"/>
<path class="st15" d="M316.3,71.1c12-12,24-23.9,36-35.9c6.7,3.6,13.3,7.3,20,10.9c0.3,19.3,0.7,38.7,1,58c14.3-12,28.7-24,43-36
	c14.5,12.8,19.8,17.2,20,17c0,0,0,0,0,0c0-1,0-1,0-1l1,43l-63,53v175h-68c1.7-42,3.3-84,5-126c-8,5.7-16,11.3-24,17l-21-7v-35
	c16.7-14.7,33.3-29.3,50-44C316.3,130.5,316.3,100.8,316.3,71.1z"/>
<path class="st16" d="M321.3,137.1c0.5-3.4,1.4-7.5,3-12c2.3-6.5,5.4-11.5,8-15c-1.4-3.3-3.1-8.5-3-15c0.2-14,8.5-23.4,11-26
	c-1.2-0.4-3.2-1.2-5-3c-3.2-3-3.8-6.7-4-8c-1.5,2.2-3.7,4.5-6.1,7.3c-3.1,3.5-6.4,6.8-6.9,5.8c2.3,26.9,1,40.5-1,48
	c-0.7,2.6-3.3,11.4,1,16C319.3,136.2,320.5,136.8,321.3,137.1z"/>
<path class="st17" d="M317.3,154.1c0.9-15.9,2.8-33.3,6-52c2-11.7,4.4-22.7,7-33c1.2,4.7,2,9.7,2,15c0,1,0,1,0,1l3-22
	c-0.4-0.5-0.8-1.1-1-2c-0.7-2.5,0.7-4.6,1-5c-5.7,6-11.3,12-17,18C317.9,100.8,317.6,127.5,317.3,154.1z"/>
<path class="st18" d="M372.3,58.1c-0.3-0.7-0.7-1-1-1c-2,0-4.4,11.6-7,35c-1.5-13.4-2.9-20-4-20c-0.4,0-0.7,0.7-1,2
	c-0.2,2.3-0.4,5.8,0,10c0.6,6.1,1.7,6.1,2,11c0.4,6.7-1.5,10.8,1,13c0.7,0.6,1.5,0.9,2,1c0,0.7,0,1.3,0,2l-31,32
	c-0.4-0.4-0.9-1.1-1-2c-0.1-1.5,1.1-2.5,2-4c1.2-2.2,0.7-3.8,1-6c0.3-2.2,1.3-5.4,5-9c3-23.3,6-46.7,9-70c1.7-4.7,3.3-9.3,5-14
	c12.1,6.4,18.1,9.8,18,10c0,0,0,0,0,0V58.1z"/>
<path class="st19" d="M354,38.7c5.1,3.1,10.1,6.3,15.2,9.4c-1.6-0.4-2.9-0.3-4,0c-11.9,3.6-9.2,41.5-9,44c-0.7,0.2-1.6,0.4-2,0
	c-0.5-0.5-0.1-1.4,0-2c0,0,0,0,0-6c0-6.3,0-17,0-22C354.2,56.5,354.2,48.6,354,38.7z"/>
<path class="st20" d="M351.3,38.1c0,17.7,0,35.3,0,53c-0.3,0.1-0.6,0.2-1,0c-2.1-0.9-0.3-8.2,0-16c0.1-3.3,0.1-8.1-1-14
	c-0.1,5.7-0.3,13.6-1,23c-0.7,9.6-1.3,17.4-3,26c-1.7,8.4-4.9,20.3-12,34c10.3-9.1,13.9-13.1,15-15c0.2-0.4,1.4-1.6,3-3
	c1.6-1.4,3-2.4,4-3c20.3-17.7,40.7-35.3,61-53c6.3,5.5,12.7,11,19,16.4v-2l-19-16.4l-63,53v-84l19,11c0,0,0.1-2.5,0-2.3
	c0,0.3,0,0.3,0,0.3c-6.7-4-13.3-8-20-12c-12,12.3-24,24.7-36,37c-0.7,29.7-1.3,59.3-2,89c-16,14.3-32,28.7-48,43c0,12,0,24,0,36
	c7,2.3,14,4.7,21,7l24-17l-4.4,108.5c0.8-0.2,1.6-0.3,2.4-0.5c2-47.3,4-94.7,6-142c-0.6,0.8-7.4,4.1-8,4c-8.7,6.3-17.3,12.7-26,19
	c-0.9-0.7-1.9-1.7-2-3c-0.1-2.4,3.3-3.9,7-7c1.9-1.6,4.5-4.1,7-8c-4,2-8,4-12,6c-0.7,0.3-1.3,0.7-2,1c2-2.3,4-4.7,6-7
	c2.3-2.7,4.7-5.4,7-8c-1.8,1.8-4.5,4-8,6c-2.6,1.4-5,2.4-7,3c3.6-3.4,7.3-7.1,11-11c3.2-3.4,6.2-6.7,9-10c-3.6,3.9-8.1,7.9-14,11
	c-0.7,0.4-1.3,0.7-2,1c11.7-10.7,23.3-21.3,35-32l2.1-88.2C329.3,60.6,340.3,49.4,351.3,38.1z"/>
<path class="st21" d="M271.3,238.1c5.3,2,10.7,4,16,6c7.7-5.7,15.3-11.3,23-17c0.1-0.5,1.5-4.7-1-8c-2.4-3.3-7.6-4.3-12-2
	c-1.7,1-4.1,2.4-7,4c-6.9,4-1.1,0.7-15,10c-1.1,0.8-3.5,2.3-4,5C271.1,236.9,271.2,237.7,271.3,238.1z"/>
<path class="st18" d="M393.3,90.1c0.9,2.8,2.1,3.7,3,4c1.7,0.5,3.2-0.8,5,0c1.1,0.5,1.7,1.4,2,2c-0.4,1.4-1.2,3.7-3,6
	c-2.1,2.8-4.6,4.3-6,5c1,0.7,2.5,1.3,4,1c2.4-0.5,3.3-3.2,5-3c0.5,0.1,1.3,0.5,2,2c0.4,0.4,1,1.1,1,2c0,1-0.9,1.6-2,3
	c-0.5,0.6-1.3,1.6-2,3c0.8,0.5,2,1.5,3,3c0.7,1,1,1.5,1,2c0,2.6-5.8,3.2-7,7c-0.4,1.2-0.2,2.3,0,3c5.7-4.3,11.3-8.7,17-13
	c6.7,3.3,13.3,6.7,20,10c0-5.3,0-10.7,0-16c-0.7-1-1.5-2.3-2-4c-1.3-4-0.5-7.4,0-9c-2.3,2.9-2.9,5.3-3,7c-0.1,2,0.4,4.2-1,6
	c-0.5,0.6-1,1-1.4,1.2c-0.4-0.6-1-1.7-1.6-3.2c-1.4-3.7-0.7-6.4-1-11c-0.1-1.6-0.3-4-1-7c-0.8,2.9-1,5.3-1,7c0,3.1,0.5,5.5-1,7
	c-0.6,0.6-1.4,0.9-2,1c-0.4-1.6-0.7-3.3-1-5c-1.7-10.3-0.8-19.6,0.9-27c-1.6-1.3-3.3-2.7-4.9-4L393.3,90.1z"/>
<path class="st18" d="M356.3,341.1h4c-0.5-4-0.9-8.3-1-13c-0.2-9.2,0.7-17.3,2-24c0.3,13.3,0.7,26.7,1,40c2.7,0,5.3,0,8,0
	c-3-13.3-2.3-22.7-1-29c0.4-2.1,1.2-5.1,2-10c1.3-7.6,1.8-13.9,2-18c0.3,19.6,0.7,39.3,1,58.9l-26,1.1l-12-4c2-17.7,2.7-32.1,3-42
	c0.6-22-0.7-36.6,2-54c1.1-7.1,2.1-9.8,2-16c-0.1-8.7-2.1-13.8,1-19c0.7-1.2,1.9-2.7,2-5c0.1-2.6-1.3-3.7-2-7c-0.5-2.3-0.2-3.9,0-6
	c1.4-12.9-0.5-20.4,3-22c0.6-0.3,1.5-0.5,3,0c7.7,2.3,15.3,4.7,23,7v31c-0.4,6.6-0.7,13.3-1,20c-0.5,11.5-0.8,22.9-1,34
	c-1.7-9.3-2-16.8-2-22c0-12.7,2.2-24.9-1-26c-0.4-0.1-0.8-0.1-1,0c-0.6,0.1-1.5,0.3-2,1c-1,1.3-0.2,3.4,0,4c1.5,4.4,0,9.3,0,14
	c0,5,0,10,0,15c-2.4-3.8-2.9-6.9-3-9c-0.2-4.6,1.8-7.9,0-12c-0.6-1.4-1.4-2.4-2-3c-0.9,1.3-2.1,3.3-3,6c-1.9,5.7-1.3,10.5-1,13
	c0.6,5.7-0.5,1.9-1,24c-0.2,9.8-0.1,17.2,0,25C355.4,305.9,355.7,321.7,356.3,341.1z"/>
<path class="st17" d="M346.3,341.1h2c0.7-56.3,1.3-112.7,2-169c7.7,2.7,15.3,5.3,23,8c6-5,12-10,18-15c-0.9-1.3-1-2.3-1-3
	c0.1-2.5,2.6-3.9,7-8c1.8-1.7,3.2-3.1,4-4c-2.7,0.4-4.7,1.3-6,2c-3,1.6-4.7,3.6-8,4c-0.8,0.1-1.6,0-2,0c0.2-0.7,0.5-1.8,1-3
	c2.2-5.3,5.9-8,11-12c13.2-10.3,16.3-13.7,23-14c0.8,0,1.5,0,2,0c0.1,0.7,0.2,1.8,0,3c-0.5,2.4-1.9,3.7-4,6c-1.2,1.3-3,3.3-5,6
	c0.9-0.9,3-2.7,6-3c0.7-0.1,1.4-0.1,2,0c5-4,10-8,15-12l-18-9l-1-48c-0.7,0-1.3,0-2,0c0,16,0,32,0,48l-67,51L346.3,341.1z"/>
<path class="st22" d="M322.3,335.1c-1-1-2-2-3-3l7-142c-1.1-0.1-2.6,0-4,1c-2.6,1.8-3.5,5.9-2,10c-0.1-0.2-1.1-1.8-3-2
	c-1-0.1-1.8,0.2-2.2,0.4c-1.9,42.9-3.9,85.8-5.8,128.6c0.1-1.3,0.8-2.5,2-3c1.4-0.6,3-0.2,4,1c0.4,1,0.8,2.4,1,4
	c0.3,3.1-0.5,5.6-1,7c2,0,4,0,6,0C321.6,336.5,321.9,335.8,322.3,335.1z"/>
<path class="st23" d="M94.3,195.1c0.3-1.9,0.5-4.7,0-8c-0.5-3.2-1.5-5.1-3-9c-1-2.6-2.5-6.3-4-11c-1.8,0-2.6,0.5-3,1
	c-1.1,1.4,0,3.6,1,8c0.6,2.5,0.8,4.5,1,6c-0.5,0.1-1.2,0.2-2,0c-1.7-0.5-2.5-2.1-3-3c-1-1.7,0,0.5-5-6c-5.6-7.3-6.7-10.1-9-10
	c-0.7,0-1.7,0.3-2,1c-0.7,1.4,2,3.4,4,7c1.3,2.4,1.8,4.6,2,6c-2-1.9-4.3-4-7-6c-2.1-1.6-4.1-2.9-6-4c-0.8,0.4-1.8,1-2,2
	c-0.3,2,3,3.7,7,7c1.8,1.5,4.3,3.8,7,7c-2.2-0.2-3.9-0.6-5-1c-4.5-1.4-6.6-3.7-11-4c-0.9-0.1-1.6,0-2,0c-0.1,0.5-0.3,1.2,0,2
	c0.8,2.4,4.6,2.8,8,4c2.3,0.8,5.6,2.5,9,6c-1.7,0.2-3,0.2-4,0c-4.7-0.7-6.8-3.8-10-3c-0.9,0.2-1.6,0.6-2,1c0.1,0.5,0.4,1.3,1,2
	c1.1,1.3,2.6,1.6,4,2c2,0.5,4,1.5,6,2c2.5,0.7,6.1,2,11,5c1.7,1.2,4.3,3.2,7,6c4.7,4.9,7.2,9.5,8,11c4.5,8.2,22.2,35.3,49,50
	c2.6,1.4,4.8,2.4,6,3c1.2,14.4,1.8,30.9,1,49c-0.9,19.5-3.2,36.9-6,52c8-2.3,16-4.7,24-7c5.9-12.9,12.1-28.7,17-47
	c4.8-17.7,7.4-33.9,8.8-47.7c9.4-3.8,22.7-10.6,36.2-22.3c15.8-13.7,25-28.4,30-38c6.5-6.8,12.6-9.7,17-11c5.9-1.7,12.3-4.5,12-6
	c-0.1-0.6-1.1-0.8-2-1c-2.2,0.2-3.9,0.6-5,1c-3.3,1.1-5.3,2.9-7,2c-0.5-0.3-0.8-0.7-1-1c5.3-3,10.7-6,16-9c0.2-0.7,0.4-1.5,0-2
	c-0.9-1.2-3.9-0.3-5,0c-2.8,0.8-3.7,1.9-6,3c-1.5,0.7-3.8,1.6-7,2c3.7-3.3,7.3-6.7,11-10c2.3-1.7,3.5-3.7,3-5c-0.3-0.7-1-1-1-1
	c-1.9-0.8-4.3,2.1-8,5c-2,1.6-4.6,3.7-8,6c0-0.2,0-0.6,0-1c0.3-3.1,2.8-4.6,5-8c0.5-0.8,1.3-2.2,2-4c0.2-0.8,0.4-1.7,0-2
	c-1-0.7-5.2,3.5-8,7c-5.2,6.4-7,9-7,9c-0.2,0.3-0.9,1.2-2,2c-0.8,0.5-1.5,0.8-2,1c-0.4-0.4-0.8-1.1-1-2c-0.3-1.4,0.3-2.4,1-4
	c0.6-1.4,2.5-6,1-8c-0.1-0.1-0.5-0.6-1-1c-0.8-0.6-1.5-0.9-2-1c-1.1,3.9-2.2,6.9-3,9c-2,5.2-3.4,7.2-4,11c-0.6,3.3-0.3,6.2,0,8
	c-1.2,4.2-3.7,10.4-9,16c-2.1,2.2-4.5,4.1-14,10c-8.8,5.4-13.3,8.2-17,10c-6.6,3.3-18.2,7.8-35,9c-6.2-0.2-14.6-1.1-24-4
	c-11.1-3.5-18.7-8.3-23-11c-6.5-4.1-12.9-8.3-19-16C98.5,205.1,95.8,199.2,94.3,195.1z"/>
<path class="st24" d="M167.3,180.1c13,0,24.3,10.8,24,24c-0.3,12.5-10.8,22.5-23,23c-12.6,0.5-24.2-9.2-25-22
	C142.4,191.7,153.9,180.1,167.3,180.1z"/>
<path d="M79.3,412.1c-0.5,0.5-1,1.2-1,2c0,1.6,1.7,2.8,2,3c2.5,1.9,39,38.9,91,92c0.7,1,2.9,3.8,7,5c5,1.5,9.1-0.5,10-1
	c40-16.7,80-33.3,120-50c4.4-2.5,18.5-10.1,31-10c6.2,0.1,8.9,2,10,3c3,2.6,3.8,6.3,4,8c0.8,0.7,2.2,1.8,4,2c1.1,0.1,2.4-0.2,5-1
	c1.6-0.5,3.5-1.1,5.4-1.8c0.3-0.1,0.5-0.2,0.6-0.2c2.5-0.9,3.5-1.7,6-3c2.3-1.2,2.7-1.3,3.3-1.5c0,0,0.4-0.2,0.7-0.5
	c1.7-1.3,3-8,3-8c0.6-3.1,2.7-5.1,7-9c8.9-8.2,36.5-7.9,64-10c10.8-0.8,17.2-1.9,30-4c25.8-4.2,28-6.7,28-8c0-1.3-2.2-2.3-4-3
	c-48.3-25-96.7-50-145-75c1.3,0,2.7,0,4,0l148,75c0.5,0.3,1.4,0.9,2,2c1.3,2.3,0.1,4.8,0,5c-1.2,2.4-3.7,2.9-4,3
	c-6.6,0.9-13.3,1.9-20,3c-29.1,4.6-57.1,10-84,16c-2.9,0.7-8.5,2.4-14,7c-5.2,4.4-7.8,9.3-9,12c-2.7,2.1-7,5.1-13,7
	c-4.8,1.5-9,1.9-12,2c-1-0.1-2.4-0.4-4-1c-4.1-1.5-6.2-3.7-8-5c-3.1-2.3-6.4-2.5-13-3c-10.5-0.8-19.6,2-25,4
	c-40.3,17.3-80.7,34.7-121,52c-1.3,0.6-6.1,2.6-12,1c-6-1.6-9.2-5.8-10-7c-31-30-62-60-93-90c-0.5-0.4-3-2.3-3-5
	C70.2,415.8,73.9,412.3,79.3,412.1z"/>
<path class="st25" d="M231.3,362.1c-2.2-1.1-5.7-2.9-10-5c-5.9-2.8-10.5-4.8-11-5c-11.8-4.9-47.1,9.5-53,12
	c-10.7,3.7-21.3,7.3-32,11c-3.8,1-6.9,2.1-9,3c-5.6,2.3-9.7,4-13,8c-1.2,1.5-0.8,1.4-3,5c-1.8,2.9-5.3,8.6-11,14c-2,1.9-5,4.5-9,7
	c-0.4,0.4-1,1.1-1,2c-0.1,1.5,1.3,2.5,4,5c1,0.9,2.4,2.2,4.2,3.9c28.4,28.9,56.8,57.8,85.3,86.6c0.8,1,2.9,3.4,6.6,4.5
	c4.7,1.4,8.6-0.3,9.5-0.8c24.7-10.5,44.1-18.9,56.5-24.2c27.9-12.1,42.2-18.4,64-26c11.7-4.1,21.5-7.1,28-9c0.6-0.2,6-2.2,11,1
	c3.7,2.4,4.7,6,5,7c0.2,0.9,0.8,2.2,2,3c1.7,1.2,3.8,0.7,7,0c1.5-0.3,3.6-0.9,6-2c2.4-0.5,7.1-1.9,11-6c1.3-1.4,2.3-2.8,3-4
	c0.2-2,0.9-6.2,4-10c6.1-7.5,15.9-7.1,17-7c11.9-0.8,23.7-1.6,35.6-2.5c22.5-3.5,44.9-7,67.4-10.5c1.4-0.2,4.7-1.2,5-3
	c0.3-1.7-2.5-3.6-3-4c-1.3-0.9-2.6-1.3-3.5-1.5c-48.2-24.8-96.4-49.7-144.5-74.5c-4.8,1.3-8.2,0.6-10,0c-1.6-0.5-3.1-1.4-6-3
	c-2.1-1.2-3.8-2.2-5-3c-18.7,1.7-37.3,3.3-56,5c-8.4,0.5-15.3,1.8-20,3c-11.1,2.7-22,5.6-29,15C232.8,359.1,231.8,360.9,231.3,362.1
	z"/>
<path d="M114.3,389.1c15.9-7.1,29.5-12.8,40-17c17.6-7.1,25.8-9.8,35-12c9.1-2.2,16.7-3.4,22-4c0-0.3,0-0.7,0-1
	c-4.9,0.5-11.8,1.3-20,3c-10.3,2.1-19.2,4.9-35,11c-11.5,4.4-26.1,10.3-43,18C113.6,387.8,113.9,388.5,114.3,389.1z"/>
<path d="M124.3,397.1c16.5-6.5,29.4-11.6,40-16c4.7-1.9,16.3-6.8,30.3-10.7c1.8-0.5,3.4-0.9,4.7-1.3c10.1-2.6,18.8-4.1,25-5
	c0-0.3,0-0.7,0-1c-3.8,0.3-8.9,0.8-15,2c-5.7,1.1-10.1,2.3-13.7,3.4c-16.2,4.7-29.3,9.6-29.3,9.6c-11.5,4.4-26.1,10.3-43,18
	C123.6,396.5,123.9,396.8,124.3,397.1z"/>
<path d="M134.3,406.1c5.8-2.8,14.8-6.8,26-11c6.7-2.5,5.4-1.8,14-5c12.8-4.8,18.7-7.5,30.3-10.7c0.4-0.1,1.6-0.4,4.7-1.3
	c12.1-3.2,21.6-5.5,28-7c0-0.3,0-0.7,0-1c-5.1,0.9-11.6,2.2-19,4c-1.9,0.5-6.5,1.6-12.7,3.4c-4.7,1.3-15.1,4.2-29.3,9.6
	c-11.5,4.4-26.1,10.3-43,18C133.6,405.5,133.9,405.8,134.3,406.1z"/>
<path d="M144.3,415.1c5.6-2.8,14.1-6.8,25-11c6.2-2.4,4.8-1.6,14-5c12.8-4.8,18.7-7.5,30.3-10.7c1.2-0.3,2.4-0.6,4.7-1.3
	c8.7-2.3,19.5-5,32-8c0-0.3,0-0.7,0-1c-9.2,1.7-17,3.5-23,5c-2.3,0.6-6.9,1.7-12.7,3.4c-2.4,0.7-6.5,1.8-11.8,3.5
	c-8,2.5-14,4.8-17.5,6.1c-17.6,6.7-38.3,16.3-42,18C143.6,414.5,143.9,414.8,144.3,415.1z"/>
<path d="M154.3,423.1c14.8-6.3,27.8-11.3,38-15c9.3-3.4,20.7-7.5,36-12c13.9-4.1,25.8-7,35-9c0-0.7,0-1.3,0-2c-4.3,0.8-10.6,2-18,4
	c-8,2.1-13.2,4-22,7c-22.3,7.6-18.4,5.9-30,10c-13.9,5-25.9,10-33,13c-2.9,1.2-5.3,2.3-7,3C153.6,422.5,153.9,422.8,154.3,423.1z"/>
<path d="M164.8,431.1c14.8-6.3,27.8-11.3,38-15c9.3-3.4,20.7-7.5,36-12c13.9-4.1,25.8-7,35-9c0-0.7,0-1.3,0-2c-4.3,0.8-10.6,2-18,4
	c-8,2.1-13.2,4-22,7c-22.3,7.6-18.4,5.9-30,10c-13.9,5-25.9,10-33,13c-2.9,1.2-5.3,2.3-7,3C164.1,430.5,164.4,430.8,164.8,431.1z"/>
<path d="M173.3,441.1c14.8-6.3,27.8-11.3,38-15c15.5-5.6,27.4-9.3,36-12c11.2-3.5,25.4-7.7,42-12c0-0.3,0-0.7,0-1
	c-10.6,2.1-19.1,4.3-25,6c-9.2,2.6-18.7,5.9-22,7c-22.3,7.6-18.4,5.9-30,10c-13.9,5-25.9,10-33,13c-2.9,1.2-5.3,2.3-7,3
	C172.6,440.5,172.9,440.8,173.3,441.1z"/>
<path d="M182.8,448.1c14.8-6.3,27.8-11.3,38-15c3.4-1.3,17.3-6.2,36-12c12.3-3.8,27.4-8.1,45-12.5c-0.7-0.3-1.3-0.7-2-1
	c-10.9,2.3-19.7,4.7-26,6.5c-9.9,2.9-20.3,6.4-22,7c-22.3,7.6-18.4,5.9-30,10c-13.9,5-25.9,10-33,13c-2.9,1.2-5.3,2.3-7,3
	C182.1,447.5,182.4,447.8,182.8,448.1z"/>
<path d="M192.8,456.1c14.8-6.3,27.8-11.3,38-15c3.5-1.3,17.2-6.2,36-12c13.2-4.1,29.7-8.8,49-13.5c-0.3-0.3-0.7-0.7-1-1
	c-13.1,2.5-23.6,5.3-31,7.5c-10.8,3.2-22,7-22,7c-22.3,7.6-18.4,5.9-30,10c-13.9,5-25.9,10-33,13c-2.9,1.2-5.3,2.3-7,3
	C192.1,455.5,192.4,455.8,192.8,456.1z"/>
<path d="M203.3,467.1c10.3-4,23.1-8.8,38-14c3.1-1.1,13.8-4.8,36-12c13.5-4.4,31.3-10,52.5-16.5c-0.5-0.5-1-1-1.5-1.5
	c-14.4,4.8-26,8.5-34,11c-10.5,3.3-14.2,4.3-22,7c-16.3,5.6-18.6,6.1-23.2,7.7c0,0,0,0,0,0c-3.4,1.1-5.9,2-6.8,2.3
	c-7.7,2.8-18,6.3-35,13c-2.2,0.9-4,1.6-5,2C202.6,466.5,202.9,466.8,203.3,467.1z"/>
<path d="M262.3,366.1c1.2-1.4,3.2-3.3,6-5c1.5-0.9,3.2-1.7,7-3c5.8-1.9,10.4-2.9,11-3c10.8-2.2,18-3,18-3c18.5-2.1,42.7-3.8,46-4
	c0-0.3,0-0.7,0-1c-6.8,0.3-15.6,0.8-25.2,1.6c-6.1,0.5-11.6,1.1-13.8,1.4c-1.8,0.2-4.8,0.5-8.7,1c-8.8,1.1-13.3,1.7-18.3,3
	c-4.3,1-7.2,2-10,3c-4.3,1.5-5.8,2.3-7,3c-2.8,1.7-4.8,3.6-6,5C261.6,365.5,261.9,365.8,262.3,366.1z"/>
<path d="M251.8,360.1c1.2-1.4,3.2-3.3,6-5c1.5-0.9,3.2-1.7,7-3c5.8-1.9,10.4-2.9,11-3c10.8-2.2,18-3,18-3c18.5-2.1,42.7-3.8,46-4
	c0-0.3,0-0.7,0-1c-6.8,0.3-15.6,0.8-25.2,1.6c-6.1,0.5-11.6,1.1-13.8,1.4c-1.8,0.2-4.8,0.5-8.7,1c-8.8,1.1-13.3,1.7-18.3,3
	c-4.3,1-7.2,2-10,3c-4.3,1.5-5.8,2.3-7,3c-2.8,1.7-4.8,3.6-6,5C251.1,359.5,251.4,359.8,251.8,360.1z"/>
<path d="M275.3,373.1c1.2-1.4,3.2-3.3,6-5c2.4-1.4,4.5-2.2,7-3c5.9-1.8,10.4-2.4,14-3c3.6-0.6,8.8-1.5,15-3c9.3-1,18.9-1.9,28.7-2.7
	c6.5-0.5,13-0.9,19.3-1.3c0-0.3,0-0.7,0-1c-5.9,0.2-16.2,0.6-27.2,1.6c-6.4,0.6-12.8,1.3-13.8,1.4c-3.8,0.4-5.8,0.7-8.7,1
	c-2.8,0.4-3.3,0.5-17.3,3c-1.2,0.2-3,0.5-5.4,1.2c-0.5,0.1-2.5,0.8-5.6,1.8c-4.4,1.5-5.8,2.2-7,3c-3,2-4.9,4.4-6,6
	C274.6,373.1,274.9,373.1,275.3,373.1z"/>
<path d="M287.3,381.1c1.2-1.4,3.2-3.3,6-5c2.4-1.5,4.5-2.2,7-3c6.3-2,11.8-3.1,17-4c3.1-0.6,7.2-1.3,12-2c7.7-1.1,15.7-2.2,24-3
	c9.4-0.9,18.4-1.6,27-2c0-0.3,0-0.7,0-1c-7.2,0.3-17.1,0.8-29,2c-4.1,0.4-7.1,0.8-9,1c-8.1,1-16.2,2.3-32,5c-1,0.2-2.9,0.5-5.4,1.2
	c-0.5,0.1-2.5,0.8-5.6,1.8c-3.6,1.3-5.4,2-7,3c-1.6,1-3.9,2.8-6,6C286.6,381.1,286.9,381.1,287.3,381.1z"/>
<path d="M301.3,388.1c1.2-1.4,3.2-3.3,6-5c2.4-1.5,4.5-2.2,7-3c6.3-2,11.8-3.1,17-4c3.1-0.6,7.2-1.3,12-2c11.6-1.8,20.8-2.7,24-3
	c7.8-0.8,17.2-1.5,28-2c0-0.3,0-0.7,0-1c-7.4,0.2-17.7,0.8-30,2c-3.9,0.4-7,0.8-9,1c-8.1,1-16.2,2.3-32,5c-1,0.2-2.9,0.5-5.4,1.2
	c-0.5,0.1-2.5,0.8-5.6,1.8c-3.5,1.2-5.3,2-7,3c-1.6,0.9-3.8,2.5-6,5C300.6,387.5,300.9,387.8,301.3,388.1z"/>
<path d="M313.8,394.1c1.2-1.4,3.2-3.3,6-5c2.4-1.5,4.5-2.2,7-3c6.3-2,11.8-3.1,17-4c3.1-0.6,7.2-1.3,12-2c11.6-1.8,20.8-2.7,24-3
	c7.8-0.8,17.2-1.5,28-2c0-0.3,0-0.7,0-1c-7.4,0.2-17.7,0.8-30,2c-3.9,0.4-7,0.8-9,1c-8.1,1-16.2,2.3-32,5c-1,0.2-2.9,0.5-5.4,1.2
	c-0.5,0.1-2.5,0.8-5.6,1.8c-3.5,1.2-5.3,2-7,3c-1.6,0.9-3.8,2.5-6,5C313.1,393.5,313.4,393.8,313.8,394.1z"/>
<path d="M328.8,401.1c1.2-1.4,3.2-3.3,6-5c2.4-1.5,4.5-2.2,7-3c6.3-2,11.8-3.1,17-4c3.1-0.6,7.2-1.3,12-2c11.6-1.8,20.8-2.7,24-3
	c7.8-0.8,17.2-1.5,28-2c0-0.3,0-0.7,0-1c-7.4,0.2-17.7,0.8-30,2c-3.9,0.4-7,0.8-9,1c-8.1,1-16.2,2.3-32,5c-1,0.2-2.9,0.5-5.4,1.2
	c-0.5,0.1-2.5,0.8-5.6,1.8c-3.5,1.2-5.3,2-7,3c-1.6,0.9-3.8,2.5-6,5C328.1,400.5,328.4,400.8,328.8,401.1z"/>
<path d="M352.3,419.1c0.3-1,0.8-2.5,2-4c1.7-2.2,3.8-3.1,6-4c6.4-2.5,11.8-3.7,13-4c1.4-0.3,3.2-0.7,11-2c6.1-1,9.1-1.6,12-2
	c4.6-0.7,10.7-1.6,18-2.4c0,0,0,0,0,0c0,0,0,0,0,0c0,0,0,0,0.1,0c0,0,3.2-0.3,5.9-0.6c2.2-0.2,16-1.4,35-3c0-0.3,0-0.7,0-1
	c-8.8,0.6-24.7,1.7-37,3c-2.5,0.3-8.3,0.9-9,1c-10.1,1.1-15.1,1.7-17,2c0,0-3.2,0.5-17.2,3.4c-0.3,0.1-1.1,0.2-2.1,0.5
	c-0.5,0.1-0.9,0.2-1.1,0.3c-9.5,2.5-11,3.1-12.6,3.8c-2.9,1.3-4.6,2.1-6,4c-1.4,1.8-1.8,3.7-2,5
	C351.6,419.1,351.9,419.1,352.3,419.1z"/>
<path d="M340.8,412.6c0.3-1,0.8-2.5,2-4c1.7-2.2,3.8-3.1,6-4c6.4-2.5,11.8-3.7,13-4c1.4-0.3,3.2-0.7,11-2c6.1-1,9.1-1.6,12-2
	c4.6-0.7,10.7-1.6,18-2.4c0,0,0,0,0,0c0,0,0,0,0,0c0,0,0,0,0.1,0c0,0,3.2-0.3,5.9-0.6c2.2-0.2,16-1.4,35-3c0-0.3,0-0.7,0-1
	c-8.8,0.6-24.7,1.7-37,3c-2.5,0.3-8.3,0.9-9,1c-10.1,1.1-15.1,1.7-17,2c0,0-3.2,0.5-17.2,3.4c-0.3,0.1-1.1,0.2-2.1,0.5
	c-0.5,0.1-0.9,0.2-1.1,0.3c-9.5,2.5-11,3.1-12.6,3.8c-2.9,1.3-4.6,2.1-6,4c-1.4,1.8-1.8,3.7-2,5
	C340.1,412.6,340.4,412.6,340.8,412.6z"/>
<path d="M365.3,427.1c0.1-0.7,0.4-1.8,1-3c0.4-0.8,2.1-4.2,8-7c2.5-1.2,5.4-1.8,11-3c3.2-0.7,5.7-1.1,11-2c6.1-1,9.1-1.6,12-2
	c4.6-0.7,10.7-1.6,18-2.4c0,0,0,0,0,0c0,0,0,0,0,0c0,0,0,0,0.1,0c0,0,0,0,0.1,0c0,0,3-0.3,5.8-0.6c2.1-0.2,17.3-1.5,38-3
	c0-0.3,0-0.7,0-1c-8.5,0.5-27.2,1.6-40,3c-0.7,0.1-4.3,0.5-9,1c-10.1,1.1-15.1,1.7-17,2c-3.9,0.7-9.8,1.7-17.2,3.4
	c-1.5,0.4-2.3,0.5-3.2,0.8c-6.9,1.8-14.5,3.8-18.6,9.8c-0.6,0.8-1.4,2.1-2,4C363.9,427.1,364.6,427.1,365.3,427.1z"/>
<path class="st26" d="M231.3,363.1c-0.1-0.5-0.2-1.2,0-2c0.4-1.7,1.6-2.7,2-3c52.7,21.3,105.3,42.7,158,64c0.8,0.4,2.7,1.6,4,4
	c1.4,2.7,1.1,5.2,1,6c0.1,11.5,4.6,21,12,24c1.5,0.6,3.5,1.1,6,1c1.3,0.7,3.2,2,5,4c2.7,3.1,3.6,6.3,4,8c-2.3,0-4.7,0-7,0
	c-1,1.7-2,3.3-3,5c-0.7-1.9-1.9-4.4-4-7c-1.4-1.7-2.8-3-4-4c-2.5-0.4-4.5-1.2-6-2c-12.2-6.6-12-25.3-12-27c0-0.5,0-3-2-5
	c-1.5-1.6-3.4-1.9-4-2C331.3,405.8,281.3,384.5,231.3,363.1z"/>
<path class="st27" d="M539.3,186.1"/>
<text transform="matrix(1.1751 0 0 1 575.2563 226.0117)"><tspan x="0" y="0" class="st25 st28 st29 st30">IGLESIA SEBASTIÁN</tspan><tspan x="0" y="189.4" class="st25 st28 st31 st32">PAGADOR</tspan></text>
</svg>
