<?xml version="1.0" encoding="UTF-8"?>
<svg version="1.1" viewBox="0 0 3164.6 1361.2" xmlns="http://www.w3.org/2000/svg">
 <g transform="translate(1246.9 293.88)" stroke="#000">
  <path d="m-1217 745.75v-42.589l1.9607-3.396v-6.9439l2.0431-3.5386 1.9959 3.4571v6.7169l2.1327 3.694v7.1525h4.8377v-53.721l-3.0625-3.0625v-14.292l5.6772-3.2776v-12.928l2.6986-4.6742 2.4993 4.3289v9.9158l4.5032-2.6v-9.3948l-3.0316-3.0316v-1.945l2.6812-1.548v-3.5561l-3.303-3.303v-14.817l1.5554-2.6939v-4.1968l0.9159-1.5864 0.9574 1.6584v3.8838l1.6296 2.8225 4.6954-4.6954v-9.3563l-1.7432-1.7432v-5.7854l5.276-9.1384-3.0238-3.0238 0.3554-1.3265 3.8408-3.8406v-6.6604l-2.3497-4.0696 2.3138-4.0076-2.2978-3.98 4.897-5.2798h1.094l4.897 5.2798-2.2977 3.98 2.3137 4.0076-2.3496 4.0696v6.6604l3.8408 3.8406 0.3553 1.3265-3.0237 3.0238 5.276 9.1384v5.7854l-1.7433 1.7432v9.3563l4.6954 4.6954 1.6297-2.8225v-3.8838l0.9573-1.6584 0.916 1.5864v4.1968l1.5554 2.6939v14.817l-3.303 3.303v3.5561l2.6811 1.548v1.945l-3.0315 3.0316v9.3948l4.5032 2.6v-9.9158l2.4993-4.3289 2.6985 4.6742v12.928l5.6773 3.2776v14.292l-3.0625 3.0625v53.721h4.8377v-7.1525l2.1327-3.694v-6.7169l1.9958-3.4571 2.0432 3.5386v6.9439l1.9607 3.396v42.589h-78.404" stroke-width="1px"/>
  <path d="m-1131.6 724.34s18.12-22.714 21.948-60.995l-2.3452-1.354 6.3016-6.3016-4.0201-4.0201v-3.1264l-3.0322-5.2519 4.4728-4.4729-1.9287-3.3406 8.8165-15.271v-17.201l-2.4708-4.2795v-6.0068l3.8568-1.0334v-47.871h-4.2605l6.0628-10.501v-13.5h5.667s3.6995-25.084 13.805-38.077v-22.176l-2.7618-1.5945v-6.1894l9.1423-9.1423 9.3337 9.3336 23.352-23.352v-3.7644h1.7227v-3.5729l2.9616-0.79362v-3.1621l4.1591-1.1144 0.7696-2.872 4.9742-1.3329 4.1383-7.1678v-11.247l-3.5469-2.0479v-2.9286l3.6119-6.2561-5.5335-5.5335v-3.7781l2.5949-1.4981h3.2249v-5.9668h-3.5729v-2.6159l9.2141-15.959v-67.563l-4.056-4.056 4.4084-7.6355-5.0436-2.9119v-3.9839l-2.0692-3.584v-2.7321h6.9496l3.1772-5.5031-3.4262-0.91813v-3.6845l11.084-6.3995v-24.279s6.3084-17.866 25.437-19.851v-1.3535h-5.3235l-2.5716-2.5715v-2.9325l14.211-9.9253v-18.948l4.0325-2.3282v-2.9954h-2.679v-2.8874l3.5846-2.0695s-9.9007-5.5098-0.607-12.638v-13.715s-3.5867-2.4702-4.3762-4.3761c-0.9956-2.4036-0.9956-5.4012 0-7.8049 0.8505-2.0532 2.1656-4.2594 4.7145-4.7145 0.6149-0.10975 1.9384-0.0958 1.9384-0.0958l2.8679-7e-5s1.3235-0.014 1.9384 0.0958c2.549 0.45513 3.864 2.6613 4.7145 4.7145 0.9956 2.4035 0.9956 5.4013 0 7.8049-0.7895 1.9059-4.3761 4.3761-4.3761 4.3761v13.715c9.2936 7.1282-0.607 12.638-0.607 12.638l3.5846 2.0695v2.8874h-2.679v2.9954l4.0325 2.3281v18.948l14.211 9.9253v2.9325l-2.5716 2.5716h-5.3235v1.3534c19.129 1.9851 25.437 19.851 25.437 19.851v24.279l11.084 6.3995v3.6845l-3.4263 0.918 3.1773 5.5031h6.9495v2.7323l-2.0691 3.5839v3.984l-5.0436 2.9119 4.4083 7.6355-4.056 4.056v67.563l9.2142 15.959v2.6159h-3.5729v5.9666h3.2249l2.5948 1.4981v3.7781l-5.5335 5.5335 3.6119 6.2561v2.9288l-3.5469 2.0479v11.247l4.1383 7.1676 4.9742 1.3329 0.7697 2.872 4.1591 1.1145v3.1621l2.9615 0.79362v3.5729h1.7227v3.7642l23.352 23.352 9.3336-9.3336 9.1424 9.1423v6.1894l-2.7619 1.5945v22.176c10.106 12.993 13.805 38.077 13.805 38.077h5.667v13.5l6.0627 10.501h-4.2605v47.871l3.8568 1.0334v6.0066l-2.4708 4.2796v17.2l8.8165 15.271-1.9287 3.3406 4.4729 4.4728-3.0323 5.252v3.1262l-4.0201 4.0201 6.3016 6.3016-2.3451 1.354c3.828 38.281 21.948 60.995 21.948 60.995z" stroke-width="1px"/>
  <path d="m-788.29 745.75v-42.589l1.9608-3.3959v-6.944l2.0431-3.5386 1.9959 3.4571v6.717l2.1328 3.6939v7.1525h4.8376v-53.721l-3.0625-3.0625v-14.292l5.6773-3.2776v-12.928l2.6985-4.6742 2.4994 4.3289v9.9158l4.5031-2.6v-9.3948l-3.0315-3.0316v-1.945l2.6811-1.548v-3.5561l-3.303-3.303v-14.817l1.5554-2.6939v-4.1968l0.916-1.5864 0.95738 1.6584v3.8838l1.6296 2.8225 4.6954-4.6954v-9.3563l-1.7432-1.7432v-5.7854l5.276-9.1384-3.0238-3.0238 0.35538-1.3265 3.8408-3.8406v-6.6604l-2.3496-4.0696 2.3138-4.0076-2.2978-3.98 4.897-5.2798h1.094l4.897 5.2798-2.2978 3.98 2.3138 4.0076-2.3496 4.0696v6.6604l3.8408 3.8406 0.35537 1.3265-3.0238 3.0238 5.276 9.1384v5.7854l-1.7432 1.7432v9.3563l4.6954 4.6954 1.6296-2.8225v-3.8838l0.95737-1.6584 0.916 1.5864v4.1968l1.5554 2.6939v14.817l-3.303 3.303v3.5561l2.6811 1.548v1.945l-3.0315 3.0316v9.3948l4.5031 2.6v-9.9158l2.4994-4.3289 2.6985 4.6742v12.928l5.6772 3.2776v14.292l-3.0625 3.0625v53.721h4.8378v-7.1525l2.1326-3.6939v-6.717l1.9959-3.4571 2.0431 3.5386v6.944l1.9608 3.3959v42.589h-78.404" stroke-width="1px"/>
  <path d="m-530.94 695.58v-10.467l-2.1944-3.8009-1.9175-7.1562 4.5488-2.6263v-3.7408l-14.152-10.106 0.77025-2.8744h14.068v-26.685l-5.0436-2.912 14.742-13.421v-58.443l-3.0625-4.0832v-12.25l-9.462-5.4629 0.839-3.1314s10.068 0.95625 13.677-9.6909v-10.467l-1.8578-3.2176v-2.3766l4.3576-4.3576-1.034-1.7909-0.47362-1.7675 4.4988-2.5974-2.1034-3.643v-3.1678h7.8009l6.0454-6.0454-2.6018-4.5063s5.5792-35.285 30.122-44.85v-5.348l7.6351-7.6351-0.92425-1.6008h-2.4146l-2.0812-2.0812v-2.3366l4.2929-2.4785v-17.045l-3.9894-6.9101v-10.827l2.1649-2.165 1.1324-0.30337 1.5885 2.7512v7.1181l0.4225 1.5769 2.0219-2.0219v-6.0628l2.1305-1.23h1.2494l1.8274 1.8273v5.5278l2.9783 2.9782v6.7196h3.2335v9.4428l-1.9995 8.3329 4.4486 2.7686v2.3366l-2.0812 2.0812h-2.4146l-0.92425 1.6008 7.6351 7.6351v5.348c24.543 9.5644 30.122 44.85 30.122 44.85l-2.6018 4.5063 6.0454 6.0454h7.8009v3.1678l-2.1034 3.643 4.4988 2.5974-0.47363 1.7675-1.034 1.7909 4.3576 4.3576v2.3766l-1.8578 3.2176v10.467c3.6092 10.647 13.677 9.6909 13.677 9.6909l0.839 3.1314-9.462 5.4629v12.25l-3.0625 4.0832v58.443l14.742 13.421-5.0436 2.912v26.685h14.068l0.77025 2.8744-14.152 10.106v3.7408l4.5488 2.6263-1.9175 7.1562-2.1944 3.8009v10.467z" stroke-width="1.25px"/>
  <path d="m1632.1-293.38-1.0626 0.59375s-1.1458 34.076-3.1874 39.562c-2 5.5-25.7 10.23-25.7 10.23v5.375h19.344l4.7187 2.7188v2l-8.1563 4.6875v3h8.7188l1.75 1.7188 0.062 5.4062c-5.8669 2.1673-8.5093 12.166 0.1563 14.25-4.661 37.502 4.8677 216.21-30.156 235.03-7.3768 3.9632-14.23 13.044-13.969 17.344 1.9851 32.663 19.125 34.281 19.125 34.281-1.8046 23.46-35.188 44.594-35.188 44.594v2.5l10.375 10.406-7.5312 7.5312 6.0938 6.0938v4.5938l-4.0626 4.0625 5.0626 5.0312v46.844l-7.4688 4.3125 8.2188 8.2188v15.125l-6.625 3.8438v11.344c-67.524 26.391-53.865 105.5-59.938 109.75l-5.7187 3.3125 17.781 17.781v76.75l-15.75-4.1875-1.7813-32.125 6.125-5.4375-1.0937-14.438-11.906-6.4688-7.75-46.188-6.1563-22.938-18.969-18.938-5.0313-18.781c-25.6-4.31-20.2-66.39-20.2-66.39h-4.6876s2.3542 23.74-4.2812 45.688c-6.6354 21.947-19.844 21.812-19.844 21.812l-5.4062 20.281-18.125 18.125-2.5625 22.469-9.1875 47.969-12.75 5.625v14.281l3.5625 1.5312 2.3125 37.188-15.5 4.1562v44.594l-5.0625-1.3438-12.375-21.469h-8.625l-6.5 24.281-53.281-30.75h-503.78v-37.25s-14.792-7.1667-14.281-41.875c0.5105-34.708-10.906-18.375-10.906-27.562v-59.156l-0.75-2.7812-2.625 0.6875s0.51035 55.656-1.5312 61.781-11.76-2.5521-9.7188 22.969c2.0417 25.521-13.781 48.469-13.781 48.469v47.938h-23.406l-12.312 46h-60.188v-41.719l-4.875 1.2812-20.688 77.188v90.844l-67.375 124.53-264.56 11.812v-9.125l3.7812-6.5625-7.2188-4.1562v-8.1562l-3-5.25v-28.188l3.4375-5.9688-4.2188-2.4688v-7.5625h-7.5312v7.6562l-5.0312 2.9062 2.8438 4.9375v28.344l-2.1875 3.7812v9.75h-7.2188l-100-94.906-82-2v-41.844l-13-13.031h-23.25l-10.719 13.531-0.75 40.312-207.22-2.5312-189.88 4.5938-746.75 32.656 0.5 20.688-88.188 2.9062-3.9374 14.688v15.812s-13.255 5.3854-6.875 12.531c6.3802 7.1459 9.4374 25.25 9.4374 25.25l-16.594 35.742v215.88h1572.6v-0.062h1591v-391.59h-39.688l-1.7188-6.4062h3.6876l-25.063-14.469-25.25 14.562 5.2813 1.4062v2.5625l-8.6875 8.6562h-81.25v-121.66l6.0312-6.0312 7.7188-13.375-6.7188-3.9062v-17.688h-20.219v-138.59l16.25-16.25-8.3125-8.2812c-0.7219-89.147-55.375-101.97-55.375-101.97v-10.188l-6.4375-3.7188v-16.875l8.4687-8.4688-7.0312-4.0625v-45.375l4.9375-4.9375-4.5625-4.5625v-5.5l5.8438-5.8438-6.9376-6.9688 10.625-10.625-1.0937-4.0312c-28.8-11.22-32.1-40.8-32.1-40.8 2.428 3.6003 38.386-33.995-1.4375-55.594-22.962-12.454-17.414-230.57-20.844-230 5.2853-1.1866 8.3495-10.873 0.1562-14.281v-5.2812l1.375-2.375h10.594v-2.5625l-9.8438-4.5938v-1.4062l3.8438-3.8125h23.094v-6.375s-20.818-2.5573-25.156-7.4062c-4.3384-4.849-3.875-40.656-3.875-40.656z" stroke-width="1px"/>
  <path d="m522.87 874.96 9.7448-9.7448v-5.0528l-6.332-1.6968v-17.793l8.1329-2.1792v-8.6484l-18.225-18.224v-126.14l2.4615-9.186v-22.575l13.478-13.478h-17.2v-23.697s-19.129-10.467-6.8575-26.708v-3.4288h-11.008v-109.18l5.4499-9.4394-5.044-8.7368v-9.9756l15.858-15.858h-15.181v-22.399l4.0603-4.0604v-3.519l-4.4099-2.546v-30.117l6.4909-6.4909h-19.676v-25.27l2.1824-3.78-6.7805-6.7805v-90.677l4.7197-8.175-3.1026-11.58 10.2-10.201 0.7704-2.8751h-11.96l-3.2483-35.383 7.331-4.2326-13.648-3.6569 8.8482-15.326s-10.347-6.4894-11.368-18.229c2.7705 0.13163 5.9974-1.9109 5.9974-4.9766 0-13.567-23.319-2.098-10.336 9.4428-4.4804 0.445-9.0673 3.4712-12.505 4.7214-1.068-2.2879-2.745-3.6694-4.3385-4.4661v-12.888l5.9751-3.4498v-3.8238l-5.0675-2.9256 6.8718-6.15c12.454-53.247-24.106-28.762-22.514-112.7l1.9262-1.9263v-5.9489l4.5759-2.6419v-3.9935l-2.455-2.4551-2.9507-0.79061-4.5929-17.141s4.5552-3.1373 5.5579-5.5579c1.1667-2.8168 0.9427-6.2471 0-9.1466-1.4448-4.443-7.5083-7.5082-7.5083-7.5082v-30.645l-2.2719-0.72185-2.272 0.72185v30.645s-6.0635 3.0652-7.5082 7.5082c-0.9428 2.8994-1.1667 6.3298 0 9.1466 1.0026 2.4206 5.5579 5.5579 5.5579 5.5579l-4.5929 17.141-2.9507 0.79061-2.4551 2.4551v3.9935l4.5759 2.6419v5.9489l1.9262 1.9263c1.5915 83.933-34.969 59.448-22.514 112.7l6.8718 6.15-5.0675 2.9256v3.8238l5.9751 3.4498v12.888c-1.5935 0.79675-3.2705 2.1782-4.3385 4.4661-3.438-1.2501-8.0249-4.2764-12.505-4.7214 12.983-11.541-10.336-23.009-10.336-9.4428 0 3.0658 3.2269 5.1083 5.9975 4.9766-1.0208 11.74-11.368 18.229-11.368 18.229l8.8483 15.326-13.648 3.6569 7.3311 4.2326-3.2483 35.383h-11.96l0.7703 2.8751 10.2 10.201-3.1026 11.58 4.7198 8.175v90.677l-6.7805 6.7805 2.1823 3.78v25.27h-19.676l6.4909 6.4909v30.117l-4.4099 2.546v3.519l4.0602 4.0604v22.399h-15.181l15.858 15.858v9.9756l-5.044 8.7368 5.4499 9.4394v109.18h-11.008v3.4288c12.271 16.241-6.8575 26.708-6.8575 26.708v23.697h-17.2l13.478 13.478v22.575l2.4614 9.186v126.14l-18.225 18.224v8.6484l8.1329 2.1792v17.793l-6.332 1.6968v5.0528l9.7448 9.7448z" stroke-width="1px"/>
 </g>
</svg>
